<svg width="15" height="15" viewBox="0 0 15 15" fill="none" xmlns="http://www.w3.org/2000/svg">
<mask id="mask0_226_37323" style="mask-type:luminance" maskUnits="userSpaceOnUse" x="0" y="0" width="15" height="15">
<path d="M0 0H14.4V14.4H0V0Z" fill="white"/>
</mask>
<g mask="url(#mask0_226_37323)">
<path d="M-7.19922 0H21.6014V14.4003H-7.19922V0Z" fill="#000066"/>
<path d="M-7.19922 0V1.61001L18.3815 14.4004H21.6014V12.7904L-3.97932 8.64e-05H-7.19922V0ZM21.6014 0V1.60992L-3.97932 14.4003H-7.19922V12.7904L18.3815 0H21.6014Z" fill="white"/>
<path d="M4.80102 0V14.4003H9.60112V0H4.80102ZM-7.19922 4.8001V9.60019H21.6014V4.8001H-7.19922Z" fill="white"/>
<path d="M-7.19922 5.76012V8.64017H21.6014V5.76012H-7.19922ZM5.76107 0V14.4003H8.64107V0H5.76107ZM-7.19922 14.4003L2.40097 9.60019H4.54758L-5.05261 14.4003H-7.19922ZM-7.19922 0L2.40097 4.8001H0.254365L-7.19922 1.07338V0ZM9.85456 4.8001L19.4548 0H21.6014L12.0012 4.8001H9.85456ZM21.6014 14.4003L12.0012 9.60019H14.1478L21.6014 13.327V14.4003Z" fill="#CC0000"/>
</g>
</svg>
