<svg width="16" height="16" viewBox="0 0 16 16" fill="none" xmlns="http://www.w3.org/2000/svg">
<path d="M14.3644 5.29295C14.1769 5.10548 13.9226 5.00017 13.6574 5.00017C13.3923 5.00017 13.138 5.10548 12.9504 5.29295L8.00044 10.243L3.05044 5.29295C2.86184 5.11079 2.60924 5.01 2.34704 5.01228C2.08484 5.01456 1.83403 5.11973 1.64862 5.30513C1.46321 5.49054 1.35805 5.74135 1.35577 6.00355C1.35349 6.26575 1.45428 6.51835 1.63644 6.70695L7.29344 12.364C7.48097 12.5514 7.73528 12.6567 8.00044 12.6567C8.2656 12.6567 8.51991 12.5514 8.70744 12.364L14.3644 6.70695C14.5519 6.51943 14.6572 6.26512 14.6572 5.99995C14.6572 5.73479 14.5519 5.48048 14.3644 5.29295Z" fill="#3CB1C3"/>
</svg>
