<svg width="15" height="15" viewBox="0 0 15 15" fill="none" xmlns="http://www.w3.org/2000/svg">
<circle cx="7.11768" cy="7.11768" r="7.11768" fill="#3CB1C3"/>
<path d="M6.11506 8.8211L10.6799 4.25631C10.7876 4.14859 10.9133 4.09473 11.0569 4.09473C11.2005 4.09473 11.3262 4.14859 11.4339 4.25631C11.5416 4.36404 11.5955 4.49205 11.5955 4.64035C11.5955 4.78865 11.5416 4.91648 11.4339 5.02384L6.4921 9.97913C6.38437 10.0869 6.2587 10.1407 6.11506 10.1407C5.97143 10.1407 5.84576 10.0869 5.73803 9.97913L3.42197 7.66307C3.31425 7.55535 3.26254 7.42752 3.26685 7.27958C3.27116 7.13164 3.32735 7.00362 3.43544 6.89554C3.54352 6.78746 3.67153 6.7336 3.81947 6.73396C3.96741 6.73432 4.09525 6.78818 4.20297 6.89554L6.11506 8.8211Z" fill="white"/>
</svg>
