<svg width="4" height="4" viewBox="0 0 4 4" fill="none" xmlns="http://www.w3.org/2000/svg">
<path d="M1.19922 0.381348C1.26825 0.381348 1.32422 0.325383 1.32422 0.256348C1.32422 0.187312 1.26825 0.131348 1.19922 0.131348C1.13018 0.131348 1.07422 0.187312 1.07422 0.256348C1.07422 0.325383 1.13018 0.381348 1.19922 0.381348Z" fill="#428BC1"/>
<path d="M0.800781 0.606445C0.869817 0.606445 0.925781 0.550481 0.925781 0.481445C0.925781 0.41241 0.869817 0.356445 0.800781 0.356445C0.731746 0.356445 0.675781 0.41241 0.675781 0.481445C0.675781 0.550481 0.731746 0.606445 0.800781 0.606445Z" fill="#428BC1"/>
<path d="M0.474609 0.931641C0.543645 0.931641 0.599609 0.875676 0.599609 0.806641C0.599609 0.737605 0.543645 0.681641 0.474609 0.681641C0.405574 0.681641 0.349609 0.737605 0.349609 0.806641C0.349609 0.875676 0.405574 0.931641 0.474609 0.931641Z" fill="#428BC1"/>
<path d="M0.25 1.33154C0.319036 1.33154 0.375 1.27558 0.375 1.20654C0.375 1.13751 0.319036 1.08154 0.25 1.08154C0.180964 1.08154 0.125 1.13751 0.125 1.20654C0.125 1.27558 0.180964 1.33154 0.25 1.33154Z" fill="#428BC1"/>
<path d="M0.125 1.78174C0.194036 1.78174 0.25 1.72577 0.25 1.65674C0.25 1.5877 0.194036 1.53174 0.125 1.53174C0.0559644 1.53174 0 1.5877 0 1.65674C0 1.72577 0.0559644 1.78174 0.125 1.78174Z" fill="#428BC1"/>
<path d="M0.125 2.23145C0.194036 2.23145 0.25 2.17548 0.25 2.10645C0.25 2.03741 0.194036 1.98145 0.125 1.98145C0.0559644 1.98145 0 2.03741 0 2.10645C0 2.17548 0.0559644 2.23145 0.125 2.23145Z" fill="#428BC1"/>
<path d="M0.25 2.68164C0.319036 2.68164 0.375 2.62568 0.375 2.55664C0.375 2.48761 0.319036 2.43164 0.25 2.43164C0.180964 2.43164 0.125 2.48761 0.125 2.55664C0.125 2.62568 0.180964 2.68164 0.25 2.68164Z" fill="#428BC1"/>
<path d="M0.474609 3.08154C0.543645 3.08154 0.599609 3.02558 0.599609 2.95654C0.599609 2.88751 0.543645 2.83154 0.474609 2.83154C0.405574 2.83154 0.349609 2.88751 0.349609 2.95654C0.349609 3.02558 0.405574 3.08154 0.474609 3.08154Z" fill="#428BC1"/>
<path d="M0.800781 3.40674C0.869817 3.40674 0.925781 3.35077 0.925781 3.28174C0.925781 3.2127 0.869817 3.15674 0.800781 3.15674C0.731746 3.15674 0.675781 3.2127 0.675781 3.28174C0.675781 3.35077 0.731746 3.40674 0.800781 3.40674Z" fill="#428BC1"/>
<path d="M1.19922 3.63135C1.26825 3.63135 1.32422 3.57538 1.32422 3.50635C1.32422 3.43731 1.26825 3.38135 1.19922 3.38135C1.13018 3.38135 1.07422 3.43731 1.07422 3.50635C1.07422 3.57538 1.13018 3.63135 1.19922 3.63135Z" fill="#428BC1"/>
<path d="M1.625 3.73145C1.69404 3.73145 1.75 3.67548 1.75 3.60645C1.75 3.53741 1.69404 3.48145 1.625 3.48145C1.55596 3.48145 1.5 3.53741 1.5 3.60645C1.5 3.67548 1.55596 3.73145 1.625 3.73145Z" fill="#428BC1"/>
<path d="M1.97461 3.63144C1.97461 3.55644 2.02461 3.50645 2.07461 3.48145C2.14961 3.48145 2.19961 3.53144 2.22461 3.58144C2.22461 3.65644 2.17461 3.70645 2.12461 3.73145C2.02461 3.75645 1.97461 3.70644 1.97461 3.63144Z" fill="#428BC1"/>
<path d="M2.52539 3.63135C2.59443 3.63135 2.65039 3.57538 2.65039 3.50635C2.65039 3.43731 2.59443 3.38135 2.52539 3.38135C2.45636 3.38135 2.40039 3.43731 2.40039 3.50635C2.40039 3.57538 2.45636 3.63135 2.52539 3.63135Z" fill="#428BC1"/>
<path d="M2.92578 3.40674C2.99482 3.40674 3.05078 3.35077 3.05078 3.28174C3.05078 3.2127 2.99482 3.15674 2.92578 3.15674C2.85675 3.15674 2.80078 3.2127 2.80078 3.28174C2.80078 3.35077 2.85675 3.40674 2.92578 3.40674Z" fill="#428BC1"/>
<path d="M3.25 3.08154C3.31904 3.08154 3.375 3.02558 3.375 2.95654C3.375 2.88751 3.31904 2.83154 3.25 2.83154C3.18096 2.83154 3.125 2.88751 3.125 2.95654C3.125 3.02558 3.18096 3.08154 3.25 3.08154Z" fill="#428BC1"/>
<path d="M3.47461 2.68164C3.54364 2.68164 3.59961 2.62568 3.59961 2.55664C3.59961 2.48761 3.54364 2.43164 3.47461 2.43164C3.40557 2.43164 3.34961 2.48761 3.34961 2.55664C3.34961 2.62568 3.40557 2.68164 3.47461 2.68164Z" fill="#428BC1"/>
<path d="M3.59961 2.23145C3.66864 2.23145 3.72461 2.17548 3.72461 2.10645C3.72461 2.03741 3.66864 1.98145 3.59961 1.98145C3.53057 1.98145 3.47461 2.03741 3.47461 2.10645C3.47461 2.17548 3.53057 2.23145 3.59961 2.23145Z" fill="#428BC1"/>
<path d="M3.59922 1.78174C3.52422 1.78174 3.47422 1.73174 3.44922 1.68174C3.44922 1.60674 3.49922 1.55674 3.54922 1.53174C3.62422 1.53174 3.67422 1.58174 3.69922 1.63174C3.72422 1.70674 3.67422 1.75674 3.59922 1.78174Z" fill="#428BC1"/>
<path d="M3.47461 1.33154C3.54364 1.33154 3.59961 1.27558 3.59961 1.20654C3.59961 1.13751 3.54364 1.08154 3.47461 1.08154C3.40557 1.08154 3.34961 1.13751 3.34961 1.20654C3.34961 1.27558 3.40557 1.33154 3.47461 1.33154Z" fill="#428BC1"/>
<path d="M3.25 0.931641C3.31904 0.931641 3.375 0.875676 3.375 0.806641C3.375 0.737605 3.31904 0.681641 3.25 0.681641C3.18096 0.681641 3.125 0.737605 3.125 0.806641C3.125 0.875676 3.18096 0.931641 3.25 0.931641Z" fill="#428BC1"/>
<path d="M2.92578 0.606445C2.99482 0.606445 3.05078 0.550481 3.05078 0.481445C3.05078 0.41241 2.99482 0.356445 2.92578 0.356445C2.85675 0.356445 2.80078 0.41241 2.80078 0.481445C2.80078 0.550481 2.85675 0.606445 2.92578 0.606445Z" fill="#428BC1"/>
<path d="M2.65 0.306503C2.625 0.381503 2.55 0.406503 2.475 0.381503C2.4 0.356503 2.375 0.281503 2.4 0.206503C2.425 0.131503 2.5 0.106503 2.575 0.131503C2.65 0.181503 2.675 0.256503 2.65 0.306503ZM2.2 0.156503C2.2 0.231503 2.125 0.281503 2.05 0.256503C1.975 0.256503 1.925 0.181503 1.95 0.106503C1.95 0.0315031 2.025 -0.0184968 2.1 0.00650325C2.175 0.0315032 2.225 0.106503 2.2 0.156503ZM1.75 0.131503C1.75 0.206503 1.7 0.256503 1.65 0.281503C1.575 0.281503 1.525 0.231503 1.5 0.181503C1.5 0.106503 1.55 0.0565033 1.6 0.0315033C1.675 0.00650334 1.75 0.0565033 1.75 0.131503Z" fill="#428BC1"/>
<path d="M1.84961 2.25635C2.05672 2.25635 2.22461 2.08845 2.22461 1.88135C2.22461 1.67424 2.05672 1.50635 1.84961 1.50635C1.6425 1.50635 1.47461 1.67424 1.47461 1.88135C1.47461 2.08845 1.6425 2.25635 1.84961 2.25635Z" fill="#428BC1"/>
<path d="M1.85039 0.131348L1.80039 1.20635L1.85039 1.88135L1.92539 1.20635L1.85039 0.131348ZM1.40039 0.181348L1.62539 1.25635L1.85039 1.88135L1.75039 1.20635L1.40039 0.181348Z" fill="#428BC1"/>
<path d="M0.975 0.356445L1.475 1.33145L1.85 1.88145L1.575 1.25645L0.975 0.356445ZM0.625 0.631445L1.35 1.45645L1.85 1.88145L1.425 1.35645L0.625 0.631445Z" fill="#428BC1"/>
<path d="M0.349609 1.00635L1.24961 1.60635L1.84961 1.88135L1.29961 1.48135L0.349609 1.00635Z" fill="#428BC1"/>
<path d="M0.17461 1.43164L1.19961 1.75664L1.84961 1.88164L1.22461 1.65664L0.17461 1.43164ZM0.0996094 1.88164L1.19961 1.93164L1.84961 1.88164L1.19961 1.83164L0.0996094 1.88164Z" fill="#428BC1"/>
<path d="M0.175781 2.33135L1.22578 2.10635L1.85078 1.88135L1.20078 2.00635L0.175781 2.33135ZM0.350781 2.75635L1.30078 2.28135L1.85078 1.88135L1.25078 2.15635L0.350781 2.75635Z" fill="#428BC1"/>
<path d="M0.625 3.10635L1.425 2.40635L1.85 1.88135L1.35 2.30635L0.625 3.10635ZM0.975 3.40635L1.575 2.48135L1.85 1.88135L1.475 2.43135L0.975 3.40635Z" fill="#428BC1"/>
<path d="M1.40039 3.58135L1.75039 2.55635L1.85039 1.88135L1.62539 2.50635L1.40039 3.58135ZM1.85039 3.63135L1.92539 2.55635L1.85039 1.88135L1.80039 2.55635L1.85039 3.63135ZM2.30039 3.58135L2.10039 2.50635L1.85039 1.88135L1.97539 2.55635L2.30039 3.58135Z" fill="#428BC1"/>
<path d="M2.72461 3.40635L2.24961 2.43135L1.84961 1.88135L2.14961 2.50635L2.72461 3.40635ZM3.09961 3.10635L2.37461 2.30635L1.84961 1.88135L2.29961 2.40635L3.09961 3.10635Z" fill="#428BC1"/>
<path d="M3.37461 2.75664L2.47461 2.15664L1.84961 1.88164L2.39961 2.28164L3.37461 2.75664ZM3.54961 2.33164L2.52461 2.00664L1.84961 1.88164L2.49961 2.10664L3.54961 2.33164ZM3.59961 1.88164L2.52461 1.80664L1.84961 1.88164L2.52461 1.93164L3.59961 1.88164ZM3.54961 1.43164L2.49961 1.65664L1.84961 1.88164L2.52461 1.75664L3.54961 1.43164Z" fill="#428BC1"/>
<path d="M3.37461 1.00674L2.39961 1.48174L1.84961 1.88174L2.47461 1.60674L3.37461 1.00674ZM3.09961 0.656738L2.29961 1.35674L1.84961 1.88174L2.37461 1.45674L3.09961 0.656738Z" fill="#428BC1"/>
<path d="M2.72461 0.356445L2.14961 1.28145L1.84961 1.88145L2.24961 1.33145L2.72461 0.356445Z" fill="#428BC1"/>
<path d="M2.32461 0.181641L1.97461 1.20664L1.84961 1.88164L2.09961 1.25664L2.32461 0.181641Z" fill="#428BC1"/>
</svg>
