<svg width="160" height="30" viewBox="0 0 160 30" fill="none" xmlns="http://www.w3.org/2000/svg">
<path d="M37.5441 13.5339C38.0286 12.7164 39.0883 12.2319 40.0875 12.2319C42.0858 12.2319 43.751 13.7458 43.751 16.0469C43.751 18.348 42.0858 19.8316 40.0875 19.8316C39.0883 19.8316 38.0286 19.438 37.5441 18.5902V23.2227H36.1211V12.4136H37.5441V13.5339ZM39.9663 18.4691C41.2683 18.4691 42.328 17.5608 42.328 16.1075C42.328 14.6541 41.2683 13.655 39.9663 13.655C38.6947 13.655 37.5744 14.5633 37.5744 16.1075C37.5744 17.6516 38.7855 18.4691 39.9663 18.4691Z" fill="#424242"/>
<path d="M47.0519 19.6802H45.6289V8.44727H47.0519V13.5036C47.4758 12.6256 48.6567 12.2622 49.4439 12.2622C51.2605 12.2622 52.4111 13.4431 52.3808 15.5019V19.7105C52.1386 19.7105 51.2 19.7105 50.9578 19.7105V15.5625C50.9578 14.3514 50.2311 13.6247 49.2319 13.6247C48.2328 13.6247 47.0217 14.2 47.0217 15.7442V19.6802H47.0519Z" fill="#424242"/>
<path d="M60.4637 18.5599C59.9793 19.3774 58.9196 19.8316 57.8901 19.8316C55.8918 19.8316 54.1963 18.348 54.1963 16.0166C54.1963 13.6853 55.8918 12.2319 57.8901 12.2319C58.8893 12.2319 59.9793 12.6558 60.4637 13.4733V12.3833H61.8565V19.6802H60.4637V18.5599ZM58.0113 13.6247C56.7093 13.6247 55.6496 14.5633 55.6496 16.0166C55.6496 17.4397 56.7093 18.4388 58.0113 18.4388C59.3132 18.4388 60.4335 17.5608 60.4335 16.0166C60.4335 14.4725 59.1921 13.6247 58.0113 13.6247Z" fill="#424242"/>
<path d="M65.6418 19.6802H64.2188V12.4136H65.6418V14.0486C66.0051 12.7769 66.7318 12.2622 67.6704 12.2622C68.1851 12.2622 68.7301 12.4136 68.942 12.5347L68.7301 13.8669C68.3365 13.6853 67.9429 13.6247 67.6401 13.6247C66.2473 13.6247 65.6418 15.1083 65.6418 17.0461V19.6802Z" fill="#424242"/>
<path d="M76.8446 15.7443V19.6804C76.6327 19.6804 75.6638 19.6804 75.4216 19.6804V15.5626C75.4216 14.3515 74.7857 13.6551 73.8471 13.6551C72.848 13.6551 71.8186 14.2607 71.8186 15.7746V19.7106H70.3955V12.4138H71.8186V13.5037C72.2122 12.6862 73.2416 12.3229 73.8169 12.2926C74.0894 12.2624 74.3619 12.2926 74.6041 12.3532C75.5124 12.5046 76.1785 12.989 76.5116 13.7762C77.1777 12.4743 78.3282 12.2926 79.0246 12.2926C80.8413 12.2926 81.8404 13.4735 81.8404 15.5323V19.7409H80.4174V15.5626C80.4174 14.3515 79.7815 13.6249 78.7521 13.6249C77.5713 13.6249 76.8446 14.5332 76.8446 15.7443Z" fill="#424242"/>
<path d="M89.9237 18.5599C89.4393 19.3774 88.3795 19.8316 87.3501 19.8316C85.3518 19.8316 83.6562 18.348 83.6562 16.0166C83.6562 13.6853 85.3518 12.2319 87.3501 12.2319C88.3493 12.2319 89.4393 12.6558 89.9237 13.4733V12.3833H91.3165V19.6802H89.9237V18.5599ZM87.4712 13.6247C86.1693 13.6247 85.1096 14.5633 85.1096 16.0166C85.1096 17.4397 86.1693 18.4388 87.4712 18.4388C88.7732 18.4388 89.8934 17.5608 89.8934 16.0166C89.8934 14.4725 88.652 13.6247 87.4712 13.6247Z" fill="#424242"/>
<path d="M93.1943 16.0166C93.1943 13.7155 94.9202 12.2319 97.0093 12.2319C99.0985 12.2319 100.824 13.6853 100.824 16.0166C100.824 18.348 99.0682 19.8316 97.0093 19.8316C94.9202 19.8316 93.1943 18.3177 93.1943 16.0166ZM99.4012 16.0166C99.4012 14.5633 98.3112 13.6247 97.0093 13.6247C95.7074 13.6247 94.6174 14.533 94.6174 16.0166C94.6174 17.5002 95.7074 18.4691 97.0093 18.4691C98.3112 18.4691 99.4012 17.5002 99.4012 16.0166Z" fill="#424242"/>
<path d="M112.541 9.80976H111.754C110.573 9.80976 110.392 10.7484 110.392 11.687V12.4136H112.087V13.6247H110.392V19.7105H108.969V13.5945H104.73V19.6802H103.307V13.5945H101.914V12.3834H103.307V11.6567C103.307 9.7492 104.124 8.41699 106.092 8.41699H106.88V9.77948H106.092C104.912 9.77948 104.73 10.7181 104.73 11.6567V12.3834H108.969V11.6567C108.969 9.7492 109.786 8.41699 111.754 8.41699H112.541V9.80976Z" fill="#424242"/>
<path d="M120.383 16.5919H114.479C114.66 17.803 115.599 18.5599 116.84 18.5599C117.718 18.5599 118.536 18.1663 118.93 17.4397C119.293 17.5911 119.747 17.7424 120.141 17.8938C119.505 19.1655 118.203 19.8316 116.78 19.8316C114.691 19.8316 113.056 18.3177 113.056 16.0166C113.056 13.7155 114.721 12.2319 116.78 12.2319C118.869 12.2319 120.413 13.6853 120.413 16.0166C120.413 16.1983 120.413 16.4405 120.383 16.5919ZM119.02 15.4716C118.839 14.2605 117.961 13.5339 116.81 13.5339C115.599 13.5339 114.66 14.2605 114.509 15.4716H119.02Z" fill="#424242"/>
<path d="M123.654 19.6802H122.23V12.4136H123.654V14.0486C124.017 12.7769 124.744 12.2622 125.682 12.2622C126.197 12.2622 126.742 12.4136 126.954 12.5347L126.742 13.8669C126.348 13.6853 125.955 13.6247 125.652 13.6247C124.259 13.6247 123.654 15.1083 123.654 17.0461V19.6802Z" fill="#424242"/>
<path d="M128.376 17.8938C128.951 17.8938 129.406 18.3177 129.406 18.8627C129.406 19.438 128.951 19.8316 128.376 19.8316C127.831 19.8316 127.347 19.438 127.347 18.8627C127.347 18.3177 127.831 17.8938 128.376 17.8938Z" fill="#41B1C3"/>
<path d="M135.007 12.2319C136.128 12.2319 137.127 12.6558 137.823 13.4128L136.733 14.3211C136.309 13.8972 135.673 13.6247 135.007 13.6247C133.705 13.6247 132.555 14.533 132.555 16.0166C132.555 17.4699 133.705 18.4691 135.007 18.4691C135.673 18.4691 136.309 18.1966 136.733 17.7424L137.823 18.6508C137.127 19.4077 136.128 19.8316 135.007 19.8316C132.918 19.8316 131.162 18.3177 131.162 16.0166C131.162 13.7155 132.918 12.2319 135.007 12.2319Z" fill="#41B1C3"/>
<path d="M138.943 16.0166C138.943 13.7155 140.669 12.2319 142.758 12.2319C144.847 12.2319 146.573 13.6853 146.573 16.0166C146.573 18.348 144.817 19.8316 142.758 19.8316C140.669 19.8316 138.943 18.3177 138.943 16.0166ZM145.15 16.0166C145.15 14.5633 144.06 13.6247 142.758 13.6247C141.456 13.6247 140.366 14.533 140.366 16.0166C140.366 17.5002 141.456 18.4691 142.758 18.4691C144.06 18.4691 145.15 17.5002 145.15 16.0166Z" fill="#41B1C3"/>
<path d="M154.899 15.7443V19.6804C154.687 19.6804 153.718 19.6804 153.476 19.6804V15.5626C153.476 14.3515 152.84 13.6551 151.902 13.6551C150.903 13.6551 149.873 14.2607 149.873 15.7746V19.7106H148.45V12.4138H149.873V13.5037C150.267 12.6862 151.296 12.3229 151.872 12.2926C152.144 12.2624 152.417 12.2926 152.659 12.3532C153.567 12.5046 154.233 12.989 154.566 13.7762C155.232 12.4743 156.383 12.2926 157.079 12.2926C158.896 12.2926 159.895 13.4735 159.895 15.5323V19.7409H158.472V15.5626C158.472 14.3515 157.836 13.6249 156.807 13.6249C155.626 13.6249 154.899 14.5332 154.899 15.7443Z" fill="#41B1C3"/>
<path d="M14.6543 29.3087C22.7477 29.3087 29.3087 22.7477 29.3087 14.6543C29.3087 6.56097 22.7477 0 14.6543 0C6.56097 0 0 6.56097 0 14.6543C0 22.7477 6.56097 29.3087 14.6543 29.3087Z" fill="#41B1C3"/>
<path d="M10.3855 22.6172C13.4623 22.6172 15.9566 20.123 15.9566 17.0462C15.9566 13.9694 13.4623 11.4751 10.3855 11.4751C7.3087 11.4751 4.81445 13.9694 4.81445 17.0462C4.81445 20.123 7.3087 22.6172 10.3855 22.6172Z" fill="white" stroke="#41B1C3" stroke-width="0.650362" stroke-miterlimit="10"/>
<path d="M14.9578 15.7442C18.0346 15.7442 20.5289 13.2499 20.5289 10.1731C20.5289 7.0963 18.0346 4.60205 14.9578 4.60205C11.881 4.60205 9.38672 7.0963 9.38672 10.1731C9.38672 13.2499 11.881 15.7442 14.9578 15.7442Z" fill="white" stroke="#41B1C3" stroke-width="0.650362" stroke-miterlimit="10"/>
<path d="M18.2879 22.8897C21.3647 22.8897 23.8589 20.3954 23.8589 17.3186C23.8589 14.2418 21.3647 11.7476 18.2879 11.7476C15.211 11.7476 12.7168 14.2418 12.7168 17.3186C12.7168 20.3954 15.211 22.8897 18.2879 22.8897Z" fill="white" stroke="#41B1C3" stroke-width="0.650362" stroke-miterlimit="10"/>
</svg>
