<svg width="1728" height="96" viewBox="0 0 1728 96" fill="none" xmlns="http://www.w3.org/2000/svg">
<rect width="1728" height="77.4" fill="white"/>
<g clip-path="url(#clip0_260_1529)">
<g clip-path="url(#clip1_260_1529)">
<path d="M89.9992 21.2736C90.4837 20.4561 91.5434 19.9717 92.5425 19.9717C94.5408 19.9717 96.2061 21.4856 96.2061 23.7867C96.2061 26.0877 94.5408 27.5713 92.5425 27.5713C91.5434 27.5713 90.4837 27.1777 89.9992 26.33V30.9624H88.5762V20.1533H89.9992V21.2736ZM92.4214 26.2089C93.7234 26.2089 94.7831 25.3005 94.7831 23.8472C94.7831 22.3939 93.7234 21.3947 92.4214 21.3947C91.1498 21.3947 90.0295 22.3031 90.0295 23.8472C90.0295 25.3914 91.2406 26.2089 92.4214 26.2089Z" fill="#424242"/>
<path d="M99.507 27.42H98.084V16.187H99.507V21.2434C99.9309 20.3653 101.112 20.002 101.899 20.002C103.716 20.002 104.866 21.1828 104.836 23.2417V27.4503C104.594 27.4503 103.655 27.4503 103.413 27.4503V23.3022C103.413 22.0911 102.686 21.3645 101.687 21.3645C100.688 21.3645 99.4768 21.9397 99.4768 23.4839V27.42H99.507Z" fill="#424242"/>
<path d="M112.919 26.2997C112.434 27.1172 111.375 27.5713 110.345 27.5713C108.347 27.5713 106.651 26.0877 106.651 23.7564C106.651 21.425 108.347 19.9717 110.345 19.9717C111.344 19.9717 112.434 20.3956 112.919 21.2131V20.1231H114.312V27.42H112.919V26.2997ZM110.466 21.3644C109.164 21.3644 108.105 22.3031 108.105 23.7564C108.105 25.1794 109.164 26.1786 110.466 26.1786C111.768 26.1786 112.889 25.3005 112.889 23.7564C112.889 22.2122 111.647 21.3644 110.466 21.3644Z" fill="#424242"/>
<path d="M118.097 27.42H116.674V20.1533H118.097V21.7883C118.46 20.5167 119.187 20.002 120.125 20.002C120.64 20.002 121.185 20.1533 121.397 20.2745L121.185 21.6067C120.792 21.425 120.398 21.3644 120.095 21.3644C118.702 21.3644 118.097 22.848 118.097 24.7858V27.42Z" fill="#424242"/>
<path d="M129.3 23.484V27.4201C129.088 27.4201 128.119 27.4201 127.877 27.4201V23.3024C127.877 22.0913 127.241 21.3949 126.302 21.3949C125.303 21.3949 124.274 22.0004 124.274 23.5143V27.4504H122.851V20.1535H124.274V21.2435C124.667 20.426 125.697 20.0627 126.272 20.0324C126.544 20.0021 126.817 20.0324 127.059 20.0929C127.967 20.2443 128.634 20.7288 128.967 21.516C129.633 20.2141 130.783 20.0324 131.48 20.0324C133.296 20.0324 134.295 21.2132 134.295 23.2721V27.4807H132.872V23.3024C132.872 22.0913 132.237 21.3646 131.207 21.3646C130.026 21.3646 129.3 22.2729 129.3 23.484Z" fill="#424242"/>
<path d="M142.379 26.2997C141.894 27.1172 140.835 27.5713 139.805 27.5713C137.807 27.5713 136.111 26.0877 136.111 23.7564C136.111 21.425 137.807 19.9717 139.805 19.9717C140.804 19.9717 141.894 20.3956 142.379 21.2131V20.1231H143.772V27.42H142.379V26.2997ZM139.926 21.3644C138.624 21.3644 137.565 22.3031 137.565 23.7564C137.565 25.1794 138.624 26.1786 139.926 26.1786C141.228 26.1786 142.349 25.3005 142.349 23.7564C142.349 22.2122 141.107 21.3644 139.926 21.3644Z" fill="#424242"/>
<path d="M145.649 23.7564C145.649 21.4553 147.375 19.9717 149.464 19.9717C151.554 19.9717 153.279 21.425 153.279 23.7564C153.279 26.0877 151.523 27.5713 149.464 27.5713C147.375 27.5713 145.649 26.0575 145.649 23.7564ZM151.856 23.7564C151.856 22.3031 150.766 21.3644 149.464 21.3644C148.162 21.3644 147.072 22.2728 147.072 23.7564C147.072 25.24 148.162 26.2089 149.464 26.2089C150.766 26.2089 151.856 25.24 151.856 23.7564Z" fill="#424242"/>
<path d="M164.997 17.5495H164.209C163.029 17.5495 162.847 18.4881 162.847 19.4267V20.1534H164.542V21.3645H162.847V27.4503H161.424V21.3342H157.185V27.42H155.762V21.3342H154.369V20.1231H155.762V19.3964C155.762 17.489 156.579 16.1567 158.547 16.1567H159.335V17.5192H158.547C157.367 17.5192 157.185 18.4578 157.185 19.3964V20.1231H161.424V19.3964C161.424 17.489 162.241 16.1567 164.209 16.1567H164.997V17.5495Z" fill="#424242"/>
<path d="M172.838 24.3316H166.934C167.115 25.5427 168.054 26.2997 169.295 26.2997C170.173 26.2997 170.991 25.9061 171.385 25.1794C171.748 25.3308 172.202 25.4822 172.596 25.6336C171.96 26.9052 170.658 27.5713 169.235 27.5713C167.146 27.5713 165.511 26.0575 165.511 23.7564C165.511 21.4553 167.176 19.9717 169.235 19.9717C171.324 19.9717 172.868 21.425 172.868 23.7564C172.868 23.938 172.868 24.1803 172.838 24.3316ZM171.475 23.2114C171.294 22.0003 170.416 21.2736 169.265 21.2736C168.054 21.2736 167.115 22.0003 166.964 23.2114H171.475Z" fill="#424242"/>
<path d="M176.109 27.42H174.686V20.1533H176.109V21.7883C176.472 20.5167 177.199 20.002 178.137 20.002C178.652 20.002 179.197 20.1533 179.409 20.2745L179.197 21.6067C178.803 21.425 178.41 21.3644 178.107 21.3644C176.714 21.3644 176.109 22.848 176.109 24.7858V27.42Z" fill="#424242"/>
<path d="M180.831 25.6338C181.406 25.6338 181.861 26.0577 181.861 26.6027C181.861 27.1779 181.406 27.5716 180.831 27.5716C180.286 27.5716 179.802 27.1779 179.802 26.6027C179.802 26.0577 180.286 25.6338 180.831 25.6338Z" fill="#41B1C3"/>
<path d="M187.462 19.9717C188.583 19.9717 189.582 20.3956 190.278 21.1525L189.188 22.0608C188.764 21.6369 188.129 21.3644 187.462 21.3644C186.161 21.3644 185.01 22.2728 185.01 23.7564C185.01 25.2097 186.161 26.2089 187.462 26.2089C188.129 26.2089 188.764 25.9364 189.188 25.4822L190.278 26.3905C189.582 27.1475 188.583 27.5713 187.462 27.5713C185.373 27.5713 183.617 26.0575 183.617 23.7564C183.617 21.4553 185.373 19.9717 187.462 19.9717Z" fill="#41B1C3"/>
<path d="M191.398 23.7564C191.398 21.4553 193.124 19.9717 195.213 19.9717C197.303 19.9717 199.028 21.425 199.028 23.7564C199.028 26.0877 197.272 27.5713 195.213 27.5713C193.124 27.5713 191.398 26.0575 191.398 23.7564ZM197.605 23.7564C197.605 22.3031 196.515 21.3644 195.213 21.3644C193.911 21.3644 192.821 22.2728 192.821 23.7564C192.821 25.24 193.911 26.2089 195.213 26.2089C196.515 26.2089 197.605 25.24 197.605 23.7564Z" fill="#41B1C3"/>
<path d="M207.354 23.484V27.4201C207.142 27.4201 206.174 27.4201 205.931 27.4201V23.3024C205.931 22.0913 205.296 21.3949 204.357 21.3949C203.358 21.3949 202.328 22.0004 202.328 23.5143V27.4504H200.905V20.1535H202.328V21.2435C202.722 20.426 203.751 20.0627 204.327 20.0324C204.599 20.0021 204.872 20.0324 205.114 20.0929C206.022 20.2443 206.688 20.7288 207.021 21.516C207.687 20.2141 208.838 20.0324 209.534 20.0324C211.351 20.0324 212.35 21.2132 212.35 23.2721V27.4807H210.927V23.3024C210.927 22.0913 210.291 21.3646 209.262 21.3646C208.081 21.3646 207.354 22.2729 207.354 23.484Z" fill="#41B1C3"/>
<path d="M67.1094 37.0484C75.2028 37.0484 81.7637 30.4874 81.7637 22.3941C81.7637 14.3007 75.2028 7.73975 67.1094 7.73975C59.016 7.73975 52.4551 14.3007 52.4551 22.3941C52.4551 30.4874 59.016 37.0484 67.1094 37.0484Z" fill="#41B1C3"/>
<path d="M62.8406 30.357C65.9174 30.357 68.4117 27.8627 68.4117 24.7859C68.4117 21.7091 65.9174 19.2148 62.8406 19.2148C59.7638 19.2148 57.2695 21.7091 57.2695 24.7859C57.2695 27.8627 59.7638 30.357 62.8406 30.357Z" fill="white" stroke="#41B1C3" stroke-width="0.650362" stroke-miterlimit="10"/>
<path d="M67.4129 23.4839C70.4897 23.4839 72.9839 20.9897 72.9839 17.9129C72.9839 14.836 70.4897 12.3418 67.4129 12.3418C64.336 12.3418 61.8418 14.836 61.8418 17.9129C61.8418 20.9897 64.336 23.4839 67.4129 23.4839Z" fill="white" stroke="#41B1C3" stroke-width="0.650362" stroke-miterlimit="10"/>
<path d="M70.7429 30.6294C73.8198 30.6294 76.314 28.1352 76.314 25.0584C76.314 21.9816 73.8198 19.4873 70.7429 19.4873C67.6661 19.4873 65.1719 21.9816 65.1719 25.0584C65.1719 28.1352 67.6661 30.6294 70.7429 30.6294Z" fill="white" stroke="#41B1C3" stroke-width="0.650362" stroke-miterlimit="10"/>
</g>
</g>
<rect x="677.844" y="8.1002" width="372.303" height="28.8" rx="13.5" stroke="#333333" stroke-opacity="0.3" stroke-width="1.8"/>
<path d="M705.673 10.1412C705.905 10.1412 706.063 10.2143 706.145 10.3606C706.232 10.5068 706.275 10.6756 706.275 10.8668C706.275 10.9231 706.269 11.0018 706.258 11.1031C706.25 11.2043 706.243 11.2718 706.235 11.3056L705.847 13.7693H705.487L705.099 11.3056C705.088 11.2343 705.078 11.1631 705.071 11.0918C705.063 11.0168 705.06 10.9418 705.06 10.8668C705.06 10.6868 705.092 10.5368 705.155 10.4168C705.257 10.2331 705.429 10.1412 705.673 10.1412ZM708.407 10.8443C708.407 10.9568 708.386 11.165 708.345 11.4687L708.249 12.1268C708.275 11.9693 708.234 12.2318 708.125 12.9143C708.088 13.1393 708.069 13.2425 708.069 13.2237L707.979 13.7693H707.619L707.231 11.3056C707.201 11.0768 707.186 10.9325 707.186 10.8725C707.186 10.7075 707.21 10.5687 707.259 10.4562C707.357 10.2462 707.533 10.1412 707.788 10.1412C707.96 10.1412 708.107 10.1975 708.227 10.31C708.347 10.4187 708.407 10.5968 708.407 10.8443Z" fill="#888888"/>
<path d="M696.795 21.65H697.621L694.927 29.8119H694.1L696.795 21.65ZM702.493 21.6612C702.725 21.6612 702.883 21.7344 702.965 21.8806C703.051 22.0269 703.095 22.1956 703.095 22.3869C703.095 22.4431 703.089 22.5219 703.078 22.6231C703.07 22.7244 703.063 22.7919 703.055 22.8256L702.667 25.2894H702.307L701.919 22.8256C701.908 22.7544 701.898 22.6831 701.891 22.6119C701.883 22.5369 701.88 22.4619 701.88 22.3869C701.88 22.2069 701.911 22.0569 701.975 21.9369C702.076 21.7531 702.249 21.6612 702.493 21.6612ZM705.226 22.3644C705.226 22.4769 705.206 22.685 705.165 22.9887L705.069 23.6469C705.095 23.4894 705.054 23.7519 704.945 24.4344C704.908 24.6594 704.889 24.7625 704.889 24.7437L704.799 25.2894H704.439L704.051 22.8256C704.021 22.5969 704.006 22.4525 704.006 22.3925C704.006 22.2275 704.03 22.0887 704.079 21.9762C704.176 21.7662 704.353 21.6612 704.608 21.6612C704.78 21.6612 704.926 21.7175 705.046 21.83C705.166 21.9387 705.226 22.1169 705.226 22.3644Z" fill="#888888"/>
<path d="M722.904 27.6499V19.2748H728.554V20.2631H724.012V22.8568H727.943V23.8451H724.012V27.6499H722.904ZM729.874 20.4574V19.2748H730.902V20.4574H729.874ZM729.874 27.6499V21.5828H730.902V27.6499H729.874ZM732.473 27.6499V21.5828H733.399V22.4455C733.844 21.779 734.488 21.4457 735.33 21.4457C735.695 21.4457 736.03 21.5124 736.335 21.6457C736.644 21.7751 736.874 21.9465 737.026 22.1598C737.179 22.3731 737.285 22.6264 737.346 22.9196C737.384 23.1101 737.403 23.4433 737.403 23.9194V27.6499H736.375V23.9594C736.375 23.5404 736.335 23.2281 736.255 23.0225C736.175 22.813 736.032 22.6473 735.827 22.5254C735.625 22.3998 735.387 22.3369 735.113 22.3369C734.675 22.3369 734.296 22.4759 733.976 22.754C733.66 23.032 733.502 23.5595 733.502 24.3364V27.6499H732.473ZM742.922 27.6499V26.8844C742.537 27.4861 741.972 27.787 741.225 27.787C740.742 27.787 740.296 27.6537 739.889 27.3871C739.485 27.1205 739.171 26.7492 738.946 26.2731C738.725 25.7932 738.615 25.2429 738.615 24.6221C738.615 24.0165 738.715 23.4681 738.917 22.9768C739.119 22.4816 739.422 22.1027 739.826 21.8399C740.229 21.5771 740.681 21.4457 741.18 21.4457C741.545 21.4457 741.871 21.5238 742.157 21.6799C742.442 21.8323 742.675 22.0322 742.854 22.2798V19.2748H743.876V27.6499H742.922ZM739.671 24.6221C739.671 25.399 739.835 25.9798 740.163 26.3645C740.49 26.7492 740.877 26.9415 741.322 26.9415C741.772 26.9415 742.153 26.7587 742.465 26.3931C742.781 26.0236 742.939 25.4619 742.939 24.7078C742.939 23.8775 742.779 23.2681 742.459 22.8796C742.139 22.4912 741.745 22.2969 741.277 22.2969C740.82 22.2969 740.437 22.4835 740.128 22.8568C739.824 23.23 739.671 23.8185 739.671 24.6221ZM747.315 27.6499L750.532 19.2748H751.726L755.153 27.6499H753.891L752.914 25.1134H749.412L748.492 27.6499H747.315ZM749.732 24.2107H752.571L751.697 21.8913C751.43 21.1867 751.232 20.6078 751.103 20.1546C750.996 20.6916 750.846 21.2248 750.652 21.7542L749.732 24.2107ZM756.039 27.6499V19.2748H759.198C759.754 19.2748 760.179 19.3015 760.472 19.3548C760.883 19.4233 761.228 19.5547 761.506 19.749C761.784 19.9394 762.007 20.2079 762.175 20.5545C762.346 20.9011 762.432 21.2819 762.432 21.6971C762.432 22.4093 762.205 23.0129 761.752 23.5081C761.299 23.9994 760.48 24.245 759.295 24.245H757.147V27.6499H756.039ZM757.147 23.2567H759.312C760.028 23.2567 760.537 23.1234 760.838 22.8568C761.139 22.5902 761.289 22.215 761.289 21.7313C761.289 21.381 761.2 21.082 761.021 20.8344C760.845 20.5831 760.613 20.4174 760.324 20.3374C760.137 20.2879 759.792 20.2631 759.29 20.2631H757.147V23.2567ZM764.031 27.6499V19.2748H765.14V27.6499H764.031ZM766.556 25.8389L767.573 25.679C767.63 26.0865 767.788 26.3988 768.047 26.6159C768.31 26.833 768.676 26.9415 769.144 26.9415C769.617 26.9415 769.967 26.8463 770.195 26.6559C770.424 26.4616 770.538 26.235 770.538 25.976C770.538 25.7437 770.437 25.5609 770.235 25.4276C770.094 25.3362 769.744 25.22 769.184 25.0791C768.43 24.8887 767.906 24.7249 767.613 24.5878C767.324 24.4469 767.103 24.2545 766.95 24.0108C766.802 23.7632 766.728 23.4909 766.728 23.1938C766.728 22.9234 766.789 22.674 766.91 22.4455C767.036 22.2131 767.206 22.0208 767.419 21.8685C767.579 21.7504 767.796 21.6514 768.07 21.5714C768.348 21.4876 768.645 21.4457 768.961 21.4457C769.438 21.4457 769.855 21.5143 770.213 21.6514C770.574 21.7885 770.841 21.9751 771.012 22.2112C771.184 22.4436 771.302 22.7559 771.367 23.1481L770.361 23.2853C770.315 22.9729 770.182 22.7292 769.961 22.554C769.744 22.3788 769.436 22.2912 769.036 22.2912C768.563 22.2912 768.226 22.3693 768.025 22.5254C767.823 22.6816 767.722 22.8644 767.722 23.0739C767.722 23.2072 767.764 23.3271 767.847 23.4338C767.931 23.5442 768.063 23.6356 768.242 23.708C768.344 23.7461 768.647 23.8337 769.15 23.9708C769.877 24.165 770.384 24.325 770.67 24.4507C770.959 24.5726 771.186 24.7516 771.349 24.9877C771.513 25.2238 771.595 25.5171 771.595 25.8675C771.595 26.2103 771.494 26.534 771.292 26.8387C771.094 27.1396 770.807 27.3738 770.43 27.5414C770.053 27.7051 769.626 27.787 769.15 27.787C768.362 27.787 767.76 27.6232 767.345 27.2957C766.933 26.9682 766.671 26.4826 766.556 25.8389ZM773.086 27.6499V26.4788H774.257V27.6499C774.257 28.0803 774.181 28.4269 774.029 28.6896C773.876 28.9562 773.635 29.1619 773.303 29.3066L773.018 28.8667C773.235 28.7715 773.395 28.6306 773.497 28.444C773.6 28.2612 773.657 27.9965 773.669 27.6499H773.086ZM785.437 24.7135L786.546 24.9934C786.313 25.9037 785.894 26.5987 785.289 27.0786C784.687 27.5547 783.95 27.7927 783.078 27.7927C782.175 27.7927 781.44 27.6099 780.873 27.2443C780.309 26.8749 779.879 26.3417 779.582 25.6447C779.288 24.9477 779.142 24.1993 779.142 23.3995C779.142 22.5273 779.307 21.7675 779.639 21.1201C779.974 20.4688 780.448 19.9756 781.061 19.6404C781.678 19.3015 782.356 19.132 783.095 19.132C783.933 19.132 784.638 19.3453 785.209 19.7718C785.78 20.1984 786.178 20.7982 786.403 21.5714L785.312 21.8285C785.117 21.2191 784.836 20.7754 784.466 20.4974C784.097 20.2193 783.632 20.0803 783.072 20.0803C782.429 20.0803 781.89 20.2346 781.456 20.5431C781.025 20.8516 780.722 21.2667 780.547 21.7885C780.372 22.3064 780.284 22.8416 780.284 23.3938C780.284 24.106 780.387 24.7287 780.593 25.2619C780.802 25.7913 781.126 26.1874 781.564 26.4502C782.002 26.713 782.476 26.8444 782.987 26.8444C783.607 26.8444 784.133 26.6654 784.563 26.3074C784.994 25.9494 785.285 25.4181 785.437 24.7135ZM787.917 27.6499V19.2748H790.802C791.453 19.2748 791.95 19.3148 792.293 19.3948C792.773 19.5052 793.182 19.7052 793.521 19.9946C793.963 20.3679 794.292 20.8458 794.509 21.4286C794.73 22.0075 794.841 22.6702 794.841 23.4167C794.841 24.0527 794.767 24.6164 794.618 25.1077C794.469 25.599 794.279 26.0065 794.047 26.3302C793.814 26.6501 793.559 26.9034 793.281 27.09C793.007 27.2729 792.674 27.4119 792.281 27.5071C791.893 27.6023 791.445 27.6499 790.939 27.6499H787.917ZM789.025 26.6616H790.813C791.365 26.6616 791.798 26.6102 792.11 26.5073C792.426 26.4045 792.678 26.2598 792.864 26.0731C793.127 25.8104 793.331 25.4581 793.475 25.0163C793.624 24.5707 793.698 24.0317 793.698 23.3995C793.698 22.5235 793.554 21.8513 793.264 21.3829C792.978 20.9106 792.63 20.5945 792.219 20.4345C791.922 20.3203 791.444 20.2631 790.785 20.2631H789.025V26.6616ZM796.338 27.6499V19.2748H798.006L799.988 25.2048C800.171 25.757 800.304 26.1703 800.388 26.4445C800.483 26.1398 800.632 25.6923 800.834 25.102L802.839 19.2748H804.33V27.6499H803.262V20.6402L800.828 27.6499H799.828L797.406 20.5202V27.6499H796.338ZM805.781 23.5709C805.781 22.1808 806.154 21.0934 806.901 20.3088C807.647 19.5205 808.611 19.1263 809.791 19.1263C810.565 19.1263 811.262 19.311 811.882 19.6804C812.503 20.0499 812.975 20.5659 813.299 21.2286C813.627 21.8875 813.79 22.6359 813.79 23.4738C813.79 24.3231 813.619 25.0829 813.276 25.7532C812.934 26.4235 812.448 26.932 811.82 27.2786C811.191 27.6213 810.513 27.7927 809.786 27.7927C808.997 27.7927 808.293 27.6023 807.672 27.2214C807.051 26.8406 806.581 26.3207 806.261 25.6618C805.941 25.0029 805.781 24.306 805.781 23.5709ZM806.924 23.588C806.924 24.5973 807.194 25.3933 807.735 25.976C808.279 26.5549 808.961 26.8444 809.78 26.8444C810.614 26.8444 811.3 26.5511 811.837 25.9646C812.377 25.3781 812.648 24.5459 812.648 23.4681C812.648 22.7863 812.532 22.1922 812.299 21.6856C812.071 21.1753 811.734 20.7811 811.288 20.5031C810.846 20.2212 810.349 20.0803 809.797 20.0803C809.013 20.0803 808.337 20.3507 807.769 20.8916C807.205 21.4286 806.924 22.3274 806.924 23.588ZM814.682 25.8389L815.699 25.679C815.756 26.0865 815.914 26.3988 816.173 26.6159C816.436 26.833 816.801 26.9415 817.27 26.9415C817.742 26.9415 818.092 26.8463 818.321 26.6559C818.549 26.4616 818.664 26.235 818.664 25.976C818.664 25.7437 818.563 25.5609 818.361 25.4276C818.22 25.3362 817.869 25.22 817.31 25.0791C816.556 24.8887 816.032 24.7249 815.739 24.5878C815.449 24.4469 815.228 24.2545 815.076 24.0108C814.927 23.7632 814.853 23.4909 814.853 23.1938C814.853 22.9234 814.914 22.674 815.036 22.4455C815.162 22.2131 815.331 22.0208 815.544 21.8685C815.704 21.7504 815.921 21.6514 816.196 21.5714C816.474 21.4876 816.771 21.4457 817.087 21.4457C817.563 21.4457 817.98 21.5143 818.338 21.6514C818.7 21.7885 818.966 21.9751 819.138 22.2112C819.309 22.4436 819.427 22.7559 819.492 23.1481L818.486 23.2853C818.441 22.9729 818.307 22.7292 818.087 22.554C817.869 22.3788 817.561 22.2912 817.161 22.2912C816.689 22.2912 816.352 22.3693 816.15 22.5254C815.948 22.6816 815.847 22.8644 815.847 23.0739C815.847 23.2072 815.889 23.3271 815.973 23.4338C816.057 23.5442 816.188 23.6356 816.367 23.708C816.47 23.7461 816.773 23.8337 817.275 23.9708C818.003 24.165 818.509 24.325 818.795 24.4507C819.084 24.5726 819.311 24.7516 819.475 24.9877C819.639 25.2238 819.72 25.5171 819.72 25.8675C819.72 26.2103 819.62 26.534 819.418 26.8387C819.22 27.1396 818.932 27.3738 818.555 27.5414C818.178 27.7051 817.751 27.787 817.275 27.787C816.487 27.787 815.885 27.6232 815.47 27.2957C815.059 26.9682 814.796 26.4826 814.682 25.8389ZM821.212 27.6499V26.4788H822.383V27.6499C822.383 28.0803 822.306 28.4269 822.154 28.6896C822.002 28.9562 821.76 29.1619 821.429 29.3066L821.143 28.8667C821.36 28.7715 821.52 28.6306 821.623 28.444C821.726 28.2612 821.783 27.9965 821.794 27.6499H821.212ZM827.044 25.8389L828.061 25.679C828.118 26.0865 828.276 26.3988 828.535 26.6159C828.798 26.833 829.164 26.9415 829.632 26.9415C830.105 26.9415 830.455 26.8463 830.683 26.6559C830.912 26.4616 831.026 26.235 831.026 25.976C831.026 25.7437 830.925 25.5609 830.723 25.4276C830.583 25.3362 830.232 25.22 829.672 25.0791C828.918 24.8887 828.395 24.7249 828.101 24.5878C827.812 24.4469 827.591 24.2545 827.439 24.0108C827.29 23.7632 827.216 23.4909 827.216 23.1938C827.216 22.9234 827.277 22.674 827.399 22.4455C827.524 22.2131 827.694 22.0208 827.907 21.8685C828.067 21.7504 828.284 21.6514 828.558 21.5714C828.836 21.4876 829.133 21.4457 829.45 21.4457C829.926 21.4457 830.343 21.5143 830.701 21.6514C831.062 21.7885 831.329 21.9751 831.5 22.2112C831.672 22.4436 831.79 22.7559 831.855 23.1481L830.849 23.2853C830.803 22.9729 830.67 22.7292 830.449 22.554C830.232 22.3788 829.924 22.2912 829.524 22.2912C829.052 22.2912 828.714 22.3693 828.513 22.5254C828.311 22.6816 828.21 22.8644 828.21 23.0739C828.21 23.2072 828.252 23.3271 828.335 23.4338C828.419 23.5442 828.551 23.6356 828.73 23.708C828.833 23.7461 829.135 23.8337 829.638 23.9708C830.365 24.165 830.872 24.325 831.158 24.4507C831.447 24.5726 831.674 24.7516 831.837 24.9877C832.001 25.2238 832.083 25.5171 832.083 25.8675C832.083 26.2103 831.982 26.534 831.78 26.8387C831.582 27.1396 831.295 27.3738 830.918 27.5414C830.541 27.7051 830.114 27.787 829.638 27.787C828.85 27.787 828.248 27.6232 827.833 27.2957C827.421 26.9682 827.159 26.4826 827.044 25.8389ZM837.282 27.6499V26.7587C836.81 27.4442 836.168 27.787 835.357 27.787C834.999 27.787 834.663 27.7185 834.351 27.5813C834.043 27.4442 833.812 27.2729 833.66 27.0672C833.511 26.8577 833.407 26.6025 833.346 26.3017C833.304 26.0998 833.283 25.7799 833.283 25.3419V21.5828H834.311V24.9477C834.311 25.4847 834.332 25.8465 834.374 26.0332C834.439 26.3036 834.576 26.5168 834.785 26.673C834.995 26.8253 835.254 26.9015 835.562 26.9015C835.871 26.9015 836.16 26.8234 836.431 26.6673C836.701 26.5073 836.892 26.2921 837.002 26.0217C837.116 25.7475 837.173 25.3514 837.173 24.8334V21.5828H838.202V27.6499H837.282ZM839.818 29.975V21.5828H840.755V22.3712C840.976 22.0627 841.226 21.8323 841.504 21.6799C841.782 21.5238 842.119 21.4457 842.515 21.4457C843.033 21.4457 843.49 21.579 843.886 21.8456C844.282 22.1122 844.581 22.4893 844.783 22.9768C844.985 23.4604 845.086 23.9917 845.086 24.5707C845.086 25.1915 844.973 25.7513 844.749 26.2502C844.528 26.7454 844.204 27.1262 843.777 27.3928C843.355 27.6556 842.909 27.787 842.441 27.787C842.098 27.787 841.789 27.7146 841.515 27.5699C841.245 27.4252 841.022 27.2424 840.847 27.0215V29.975H839.818ZM840.75 24.6506C840.75 25.4314 840.908 26.0084 841.224 26.3816C841.54 26.7549 841.923 26.9415 842.372 26.9415C842.829 26.9415 843.219 26.7492 843.543 26.3645C843.871 25.976 844.035 25.3762 844.035 24.5649C844.035 23.7918 843.875 23.2129 843.555 22.8282C843.239 22.4436 842.86 22.2512 842.418 22.2512C841.98 22.2512 841.591 22.4569 841.252 22.8682C840.917 23.2757 840.75 23.8699 840.75 24.6506ZM846.331 29.975V21.5828H847.268V22.3712C847.489 22.0627 847.738 21.8323 848.016 21.6799C848.294 21.5238 848.631 21.4457 849.028 21.4457C849.546 21.4457 850.003 21.579 850.399 21.8456C850.795 22.1122 851.094 22.4893 851.296 22.9768C851.497 23.4604 851.598 23.9917 851.598 24.5707C851.598 25.1915 851.486 25.7513 851.261 26.2502C851.04 26.7454 850.717 27.1262 850.29 27.3928C849.867 27.6556 849.422 27.787 848.953 27.787C848.611 27.787 848.302 27.7146 848.028 27.5699C847.757 27.4252 847.535 27.2424 847.359 27.0215V29.975H846.331ZM847.262 24.6506C847.262 25.4314 847.42 26.0084 847.736 26.3816C848.053 26.7549 848.435 26.9415 848.885 26.9415C849.342 26.9415 849.732 26.7492 850.056 26.3645C850.383 25.976 850.547 25.3762 850.547 24.5649C850.547 23.7918 850.387 23.2129 850.067 22.8282C849.751 22.4436 849.372 22.2512 848.93 22.2512C848.492 22.2512 848.104 22.4569 847.765 22.8682C847.43 23.2757 847.262 23.8699 847.262 24.6506ZM852.821 27.6499V19.2748H853.849V27.6499H852.821ZM855.455 20.4574V19.2748H856.483V20.4574H855.455ZM855.455 27.6499V21.5828H856.483V27.6499H855.455ZM862.207 25.6961L863.27 25.8275C863.102 26.4483 862.792 26.9301 862.339 27.2729C861.885 27.6156 861.306 27.787 860.602 27.787C859.715 27.787 859.01 27.5147 858.488 26.9701C857.97 26.4216 857.711 25.6542 857.711 24.6678C857.711 23.6471 857.974 22.8549 858.5 22.2912C859.025 21.7275 859.707 21.4457 860.545 21.4457C861.356 21.4457 862.019 21.7218 862.533 22.2741C863.047 22.8263 863.304 23.6033 863.304 24.6049C863.304 24.6659 863.302 24.7573 863.298 24.8792H858.774C858.812 25.5457 859 26.056 859.339 26.4102C859.678 26.7644 860.101 26.9415 860.608 26.9415C860.985 26.9415 861.306 26.8425 861.573 26.6444C861.84 26.4464 862.051 26.1303 862.207 25.6961ZM858.831 24.0336H862.219C862.173 23.5233 862.043 23.1405 861.83 22.8854C861.503 22.4893 861.078 22.2912 860.556 22.2912C860.084 22.2912 859.686 22.4493 859.362 22.7654C859.042 23.0815 858.865 23.5042 858.831 24.0336ZM864.555 27.6499V21.5828H865.481V22.5026C865.717 22.0722 865.934 21.7885 866.132 21.6514C866.334 21.5143 866.555 21.4457 866.795 21.4457C867.141 21.4457 867.494 21.5562 867.852 21.7771L867.497 22.7311C867.246 22.5826 866.995 22.5083 866.743 22.5083C866.519 22.5083 866.317 22.5769 866.138 22.714C865.959 22.8473 865.831 23.0339 865.755 23.2738C865.641 23.6395 865.584 24.0394 865.584 24.4735V27.6499H864.555ZM868.052 25.8389L869.068 25.679C869.126 26.0865 869.284 26.3988 869.543 26.6159C869.805 26.833 870.171 26.9415 870.639 26.9415C871.112 26.9415 871.462 26.8463 871.691 26.6559C871.919 26.4616 872.033 26.235 872.033 25.976C872.033 25.7437 871.932 25.5609 871.731 25.4276C871.59 25.3362 871.239 25.22 870.679 25.0791C869.925 24.8887 869.402 24.7249 869.108 24.5878C868.819 24.4469 868.598 24.2545 868.446 24.0108C868.297 23.7632 868.223 23.4909 868.223 23.1938C868.223 22.9234 868.284 22.674 868.406 22.4455C868.531 22.2131 868.701 22.0208 868.914 21.8685C869.074 21.7504 869.291 21.6514 869.565 21.5714C869.843 21.4876 870.141 21.4457 870.457 21.4457C870.933 21.4457 871.35 21.5143 871.708 21.6514C872.07 21.7885 872.336 21.9751 872.508 22.2112C872.679 22.4436 872.797 22.7559 872.862 23.1481L871.856 23.2853C871.811 22.9729 871.677 22.7292 871.456 22.554C871.239 22.3788 870.931 22.2912 870.531 22.2912C870.059 22.2912 869.722 22.3693 869.52 22.5254C869.318 22.6816 869.217 22.8644 869.217 23.0739C869.217 23.2072 869.259 23.3271 869.343 23.4338C869.426 23.5442 869.558 23.6356 869.737 23.708C869.84 23.7461 870.142 23.8337 870.645 23.9708C871.373 24.165 871.879 24.325 872.165 24.4507C872.454 24.5726 872.681 24.7516 872.845 24.9877C873.008 25.2238 873.09 25.5171 873.09 25.8675C873.09 26.2103 872.989 26.534 872.788 26.8387C872.589 27.1396 872.302 27.3738 871.925 27.5414C871.548 27.7051 871.121 27.787 870.645 27.787C869.857 27.787 869.255 27.6232 868.84 27.2957C868.429 26.9682 868.166 26.4826 868.052 25.8389ZM882.357 26.6616C882.018 27.0386 881.648 27.3224 881.248 27.5128C880.848 27.6994 880.416 27.7927 879.951 27.7927C879.095 27.7927 878.415 27.5033 877.912 26.9244C877.504 26.4521 877.301 25.9246 877.301 25.3419C877.301 24.8239 877.466 24.3574 877.798 23.9422C878.133 23.5233 878.632 23.1558 879.294 22.8396C878.917 22.4055 878.666 22.0532 878.54 21.7828C878.415 21.5124 878.352 21.2515 878.352 21.0001C878.352 20.4974 878.548 20.0613 878.94 19.6918C879.336 19.3186 879.833 19.132 880.431 19.132C881.003 19.132 881.469 19.3072 881.831 19.6576C882.197 20.008 882.379 20.4288 882.379 20.9201C882.379 21.7161 881.852 22.3959 880.797 22.9596L882.299 24.8734C882.471 24.5383 882.604 24.1498 882.699 23.708L883.768 23.9365C883.585 24.6678 883.337 25.2695 883.025 25.7418C883.41 26.2521 883.846 26.6806 884.333 27.0272L883.642 27.8441C883.227 27.5775 882.798 27.1833 882.357 26.6616ZM880.266 22.2969C880.711 22.0341 880.999 21.8037 881.128 21.6057C881.262 21.4076 881.328 21.1886 881.328 20.9487C881.328 20.663 881.237 20.4307 881.054 20.2517C880.875 20.0689 880.65 19.9775 880.38 19.9775C880.102 19.9775 879.87 20.067 879.683 20.246C879.5 20.425 879.409 20.644 879.409 20.903C879.409 21.0325 879.441 21.1696 879.506 21.3143C879.574 21.4552 879.675 21.6057 879.809 21.7656L880.266 22.2969ZM881.711 25.8503L879.826 23.5138C879.27 23.8451 878.895 24.1536 878.7 24.4393C878.506 24.7211 878.409 25.001 878.409 25.2791C878.409 25.618 878.544 25.9703 878.815 26.3359C879.085 26.7016 879.468 26.8844 879.963 26.8844C880.271 26.8844 880.589 26.7892 880.917 26.5987C881.248 26.4045 881.513 26.155 881.711 25.8503ZM888.629 29.975V21.5828H889.566V22.3712C889.787 22.0627 890.037 21.8323 890.315 21.6799C890.593 21.5238 890.93 21.4457 891.326 21.4457C891.844 21.4457 892.301 21.579 892.697 21.8456C893.093 22.1122 893.392 22.4893 893.594 22.9768C893.796 23.4604 893.897 23.9917 893.897 24.5707C893.897 25.1915 893.784 25.7513 893.56 26.2502C893.339 26.7454 893.015 27.1262 892.588 27.3928C892.166 27.6556 891.72 27.787 891.252 27.787C890.909 27.787 890.6 27.7146 890.326 27.5699C890.056 27.4252 889.833 27.2424 889.658 27.0215V29.975H888.629ZM889.561 24.6506C889.561 25.4314 889.719 26.0084 890.035 26.3816C890.351 26.7549 890.734 26.9415 891.183 26.9415C891.64 26.9415 892.03 26.7492 892.354 26.3645C892.682 25.976 892.845 25.3762 892.845 24.5649C892.845 23.7918 892.686 23.2129 892.366 22.8282C892.049 22.4436 891.671 22.2512 891.229 22.2512C890.791 22.2512 890.402 22.4569 890.063 22.8682C889.728 23.2757 889.561 23.8699 889.561 24.6506ZM895.131 27.6499V21.5828H896.056V22.5026C896.292 22.0722 896.509 21.7885 896.707 21.6514C896.909 21.5143 897.13 21.4457 897.37 21.4457C897.717 21.4457 898.069 21.5562 898.427 21.7771L898.073 22.7311C897.821 22.5826 897.57 22.5083 897.319 22.5083C897.094 22.5083 896.892 22.5769 896.713 22.714C896.534 22.8473 896.406 23.0339 896.33 23.2738C896.216 23.6395 896.159 24.0394 896.159 24.4735V27.6499H895.131ZM899.044 20.4574V19.2748H900.072V20.4574H899.044ZM899.044 27.6499V21.5828H900.072V27.6499H899.044ZM905.602 25.4276L906.614 25.559C906.503 26.256 906.219 26.8025 905.762 27.1986C905.309 27.5909 904.751 27.787 904.088 27.787C903.258 27.787 902.59 27.5166 902.083 26.9758C901.58 26.4312 901.329 25.6523 901.329 24.6392C901.329 23.9841 901.438 23.4109 901.655 22.9196C901.872 22.4283 902.201 22.0608 902.643 21.817C903.089 21.5695 903.572 21.4457 904.094 21.4457C904.753 21.4457 905.292 21.6133 905.711 21.9484C906.13 22.2798 906.398 22.7521 906.516 23.3652L905.517 23.5195C905.421 23.112 905.252 22.8054 905.008 22.5997C904.768 22.394 904.477 22.2912 904.134 22.2912C903.616 22.2912 903.195 22.4778 902.872 22.8511C902.548 23.2205 902.386 23.807 902.386 24.6106C902.386 25.4257 902.542 26.0179 902.854 26.3874C903.167 26.7568 903.574 26.9415 904.077 26.9415C904.481 26.9415 904.818 26.8177 905.088 26.5702C905.359 26.3226 905.53 25.9417 905.602 25.4276ZM911.647 25.6961L912.709 25.8275C912.542 26.4483 912.231 26.9301 911.778 27.2729C911.325 27.6156 910.746 27.787 910.041 27.787C909.154 27.787 908.449 27.5147 907.927 26.9701C907.41 26.4216 907.151 25.6542 907.151 24.6678C907.151 23.6471 907.413 22.8549 907.939 22.2912C908.464 21.7275 909.146 21.4457 909.984 21.4457C910.795 21.4457 911.458 21.7218 911.972 22.2741C912.486 22.8263 912.743 23.6033 912.743 24.6049C912.743 24.6659 912.742 24.7573 912.738 24.8792H908.213C908.251 25.5457 908.44 26.056 908.779 26.4102C909.118 26.7644 909.54 26.9415 910.047 26.9415C910.424 26.9415 910.746 26.8425 911.012 26.6444C911.279 26.4464 911.49 26.1303 911.647 25.6961ZM908.27 24.0336H911.658C911.612 23.5233 911.483 23.1405 911.27 22.8854C910.942 22.4893 910.517 22.2912 909.996 22.2912C909.523 22.2912 909.125 22.4493 908.802 22.7654C908.482 23.0815 908.305 23.5042 908.27 24.0336ZM913.595 25.8389L914.612 25.679C914.669 26.0865 914.827 26.3988 915.086 26.6159C915.349 26.833 915.714 26.9415 916.183 26.9415C916.655 26.9415 917.005 26.8463 917.234 26.6559C917.462 26.4616 917.577 26.235 917.577 25.976C917.577 25.7437 917.476 25.5609 917.274 25.4276C917.133 25.3362 916.782 25.22 916.223 25.0791C915.468 24.8887 914.945 24.7249 914.652 24.5878C914.362 24.4469 914.141 24.2545 913.989 24.0108C913.84 23.7632 913.766 23.4909 913.766 23.1938C913.766 22.9234 913.827 22.674 913.949 22.4455C914.075 22.2131 914.244 22.0208 914.457 21.8685C914.617 21.7504 914.834 21.6514 915.109 21.5714C915.387 21.4876 915.684 21.4457 916 21.4457C916.476 21.4457 916.893 21.5143 917.251 21.6514C917.613 21.7885 917.879 21.9751 918.051 22.2112C918.222 22.4436 918.34 22.7559 918.405 23.1481L917.399 23.2853C917.354 22.9729 917.22 22.7292 917 22.554C916.782 22.3788 916.474 22.2912 916.074 22.2912C915.602 22.2912 915.265 22.3693 915.063 22.5254C914.861 22.6816 914.76 22.8644 914.76 23.0739C914.76 23.2072 914.802 23.3271 914.886 23.4338C914.97 23.5442 915.101 23.6356 915.28 23.708C915.383 23.7461 915.686 23.8337 916.188 23.9708C916.916 24.165 917.422 24.325 917.708 24.4507C917.997 24.5726 918.224 24.7516 918.388 24.9877C918.552 25.2238 918.633 25.5171 918.633 25.8675C918.633 26.2103 918.533 26.534 918.331 26.8387C918.133 27.1396 917.845 27.3738 917.468 27.5414C917.091 27.7051 916.664 27.787 916.188 27.787C915.4 27.787 914.798 27.6232 914.383 27.2957C913.972 26.9682 913.709 26.4826 913.595 25.8389ZM920.147 27.6499V26.4788H921.319V27.6499H920.147ZM923.404 27.6499V26.4788H924.575V27.6499H923.404ZM926.66 27.6499V26.4788H927.831V27.6499H926.66Z" fill="#333333" fill-opacity="0.4"/>
<rect x="1390.67" y="4.4998" width="77.4" height="36" rx="17.55" fill="white"/>
<rect x="1390.67" y="4.4998" width="77.4" height="36" rx="17.55" stroke="#BBBBBB" stroke-width="0.9"/>
<g clip-path="url(#clip2_260_1529)">
<g clip-path="url(#clip3_260_1529)">
<g clip-path="url(#clip4_260_1529)">
<mask id="mask0_260_1529" style="mask-type:luminance" maskUnits="userSpaceOnUse" x="1405" y="15" width="15" height="15">
<path d="M1405.48 15.2998H1419.88V29.6998H1405.48V15.2998Z" fill="white"/>
</mask>
<g mask="url(#mask0_260_1529)">
<path d="M1398.28 15.2998H1427.08V29.7001H1398.28V15.2998Z" fill="#000066"/>
<path d="M1398.28 15.2998V16.9098L1423.86 29.7002H1427.08V28.0902L1401.5 15.2999H1398.28V15.2998ZM1427.08 15.2998V16.9097L1401.5 29.7001H1398.28V28.0902L1423.86 15.2998H1427.08Z" fill="white"/>
<path d="M1410.28 15.2998V29.7001H1415.08V15.2998H1410.28ZM1398.28 20.0999V24.9H1427.08V20.0999H1398.28Z" fill="white"/>
<path d="M1398.28 21.0599V23.94H1427.08V21.0599H1398.28ZM1411.24 15.2998V29.7001H1414.12V15.2998H1411.24ZM1398.28 29.7001L1407.88 24.9H1410.02L1400.42 29.7001H1398.28ZM1398.28 15.2998L1407.88 20.0999H1405.73L1398.28 16.3732V15.2998ZM1415.33 20.0999L1424.93 15.2998H1427.08L1417.48 20.0999H1415.33ZM1427.08 29.7001L1417.48 24.9H1419.62L1427.08 28.6268V29.7001Z" fill="#CC0000"/>
</g>
</g>
</g>
</g>
<path d="M1430.61 27.1494H1424.88V16.8697H1430.61V17.9244H1426.08V21.2502H1430.35V22.2908H1426.08V26.0947H1430.61V27.1494ZM1440.92 27.1494H1439.54L1433.94 18.515H1433.88C1433.9 18.7447 1433.91 19.0072 1433.93 19.3025C1433.95 19.5932 1433.96 19.9049 1433.97 20.2377C1433.99 20.5658 1434 20.901 1434 21.2432V27.1494H1432.88V16.8697H1434.26L1439.84 25.476H1439.89C1439.88 25.3119 1439.87 25.0799 1439.85 24.7799C1439.84 24.4752 1439.82 24.1494 1439.81 23.8025C1439.8 23.451 1439.8 23.1252 1439.8 22.8252V16.8697H1440.92V27.1494ZM1454.28 20.1078L1450.28 24.111L1446.28 20.1078H1454.28Z" fill="#666666"/>
<path d="M1499.53 27.3999H1498.52V18.6622H1503.38V19.5587H1499.53V22.7621H1503.15V23.6526H1499.53V27.3999ZM1510.34 24.1128C1510.34 24.6507 1510.27 25.1308 1510.13 25.5531C1509.99 25.9755 1509.79 26.3321 1509.52 26.6229C1509.26 26.9138 1508.94 27.1369 1508.57 27.2923C1508.2 27.4437 1507.78 27.5194 1507.31 27.5194C1506.87 27.5194 1506.47 27.4437 1506.1 27.2923C1505.74 27.1369 1505.42 26.9138 1505.16 26.6229C1504.89 26.3321 1504.69 25.9755 1504.54 25.5531C1504.4 25.1308 1504.32 24.6507 1504.32 24.1128C1504.32 23.3956 1504.45 22.786 1504.69 22.284C1504.93 21.7779 1505.28 21.3935 1505.73 21.1305C1506.18 20.8635 1506.72 20.7301 1507.35 20.7301C1507.95 20.7301 1508.47 20.8635 1508.91 21.1305C1509.37 21.3974 1509.71 21.7839 1509.96 22.2899C1510.21 22.792 1510.34 23.3996 1510.34 24.1128ZM1505.35 24.1128C1505.35 24.6387 1505.42 25.0949 1505.56 25.4814C1505.7 25.8679 1505.92 26.1667 1506.21 26.3779C1506.5 26.5891 1506.87 26.6947 1507.33 26.6947C1507.79 26.6947 1508.16 26.5891 1508.45 26.3779C1508.74 26.1667 1508.96 25.8679 1509.1 25.4814C1509.24 25.0949 1509.31 24.6387 1509.31 24.1128C1509.31 23.5908 1509.24 23.1406 1509.1 22.7621C1508.96 22.3796 1508.75 22.0847 1508.45 21.8776C1508.16 21.6704 1507.79 21.5668 1507.33 21.5668C1506.64 21.5668 1506.14 21.7919 1505.82 22.2421C1505.51 22.6924 1505.35 23.3159 1505.35 24.1128ZM1515.03 20.7301C1515.16 20.7301 1515.3 20.738 1515.44 20.754C1515.58 20.7659 1515.71 20.7838 1515.82 20.8078L1515.7 21.7281C1515.59 21.7003 1515.47 21.6783 1515.34 21.6624C1515.21 21.6465 1515.08 21.6385 1514.97 21.6385C1514.71 21.6385 1514.46 21.6923 1514.22 21.7999C1513.99 21.9035 1513.79 22.0549 1513.61 22.2541C1513.44 22.4493 1513.3 22.6864 1513.2 22.9653C1513.1 23.2402 1513.05 23.547 1513.05 23.8857V27.3999H1512.05V20.8496H1512.88L1512.98 22.0569H1513.03C1513.16 21.8138 1513.33 21.5927 1513.52 21.3935C1513.71 21.1903 1513.93 21.0289 1514.18 20.9094C1514.44 20.7898 1514.72 20.7301 1515.03 20.7301ZM1524.48 25.6069C1524.48 26.0253 1524.37 26.3779 1524.16 26.6648C1523.95 26.9477 1523.66 27.1608 1523.26 27.3043C1522.88 27.4477 1522.42 27.5194 1521.88 27.5194C1521.42 27.5194 1521.02 27.4836 1520.69 27.4119C1520.35 27.3401 1520.06 27.2385 1519.81 27.1071V26.1926C1520.08 26.3241 1520.4 26.4437 1520.77 26.5512C1521.14 26.6588 1521.52 26.7126 1521.9 26.7126C1522.47 26.7126 1522.88 26.621 1523.13 26.4377C1523.39 26.2544 1523.52 26.0054 1523.52 25.6906C1523.52 25.5113 1523.46 25.3539 1523.36 25.2185C1523.26 25.079 1523.09 24.9455 1522.85 24.818C1522.61 24.6865 1522.28 24.5431 1521.86 24.3877C1521.44 24.2283 1521.08 24.071 1520.77 23.9156C1520.47 23.7562 1520.23 23.5629 1520.07 23.3358C1519.9 23.1087 1519.82 22.8139 1519.82 22.4513C1519.82 21.8975 1520.05 21.4731 1520.49 21.1783C1520.94 20.8795 1521.53 20.7301 1522.26 20.7301C1522.65 20.7301 1523.02 20.7699 1523.37 20.8496C1523.71 20.9253 1524.04 21.0289 1524.33 21.1604L1524 21.9553C1523.73 21.8397 1523.44 21.7421 1523.13 21.6624C1522.83 21.5827 1522.51 21.5429 1522.19 21.5429C1521.74 21.5429 1521.38 21.6186 1521.14 21.77C1520.89 21.9214 1520.77 22.1286 1520.77 22.3915C1520.77 22.5947 1520.83 22.7621 1520.94 22.8936C1521.06 23.0251 1521.24 23.1486 1521.49 23.2641C1521.74 23.3797 1522.07 23.5151 1522.48 23.6705C1522.89 23.8219 1523.25 23.9793 1523.55 24.1427C1523.84 24.3021 1524.07 24.4973 1524.23 24.7284C1524.4 24.9555 1524.48 25.2483 1524.48 25.6069ZM1531.48 20.8496V27.3999H1530.67L1530.53 26.4795H1530.47C1530.34 26.7066 1530.16 26.8979 1529.95 27.0533C1529.73 27.2087 1529.49 27.3242 1529.22 27.3999C1528.95 27.4796 1528.67 27.5194 1528.36 27.5194C1527.84 27.5194 1527.41 27.4358 1527.06 27.2684C1526.71 27.1011 1526.44 26.8421 1526.26 26.4915C1526.09 26.1408 1526 25.6906 1526 25.1408V20.8496H1527.01V25.069C1527.01 25.6149 1527.13 26.0233 1527.38 26.2942C1527.62 26.5612 1528 26.6947 1528.51 26.6947C1528.99 26.6947 1529.38 26.603 1529.67 26.4197C1529.96 26.2365 1530.17 25.9675 1530.29 25.6129C1530.42 25.2543 1530.48 24.816 1530.48 24.2981V20.8496H1531.48ZM1536.66 20.7301C1537.47 20.7301 1538.13 21.011 1538.61 21.5728C1539.1 22.1346 1539.34 22.9792 1539.34 24.1068C1539.34 24.8519 1539.23 25.4774 1539.01 25.9835C1538.78 26.4895 1538.47 26.872 1538.06 27.131C1537.66 27.3899 1537.18 27.5194 1536.63 27.5194C1536.29 27.5194 1535.98 27.4736 1535.72 27.382C1535.46 27.2903 1535.23 27.1668 1535.04 27.0114C1534.86 26.856 1534.7 26.6867 1534.58 26.5034H1534.51C1534.52 26.6588 1534.53 26.8461 1534.55 27.0652C1534.57 27.2844 1534.58 27.4756 1534.58 27.639V30.3284H1533.58V20.8496H1534.4L1534.53 21.8178H1534.58C1534.71 21.6186 1534.86 21.4373 1535.04 21.2739C1535.23 21.1066 1535.45 20.9751 1535.71 20.8795C1535.98 20.7799 1536.3 20.7301 1536.66 20.7301ZM1536.48 21.5668C1536.03 21.5668 1535.66 21.6544 1535.39 21.8297C1535.11 22.0051 1534.91 22.268 1534.78 22.6187C1534.65 22.9653 1534.59 23.4016 1534.58 23.9275V24.1188C1534.58 24.6726 1534.64 25.1408 1534.76 25.5233C1534.88 25.9058 1535.08 26.1966 1535.36 26.3958C1535.64 26.5951 1536.02 26.6947 1536.5 26.6947C1536.9 26.6947 1537.24 26.5851 1537.51 26.366C1537.78 26.1468 1537.98 25.842 1538.12 25.4515C1538.25 25.0571 1538.32 24.6049 1538.32 24.0949C1538.32 23.3219 1538.17 22.7083 1537.87 22.2541C1537.57 21.7959 1537.11 21.5668 1536.48 21.5668ZM1544.15 20.7301C1544.97 20.7301 1545.62 21.011 1546.11 21.5728C1546.59 22.1346 1546.84 22.9792 1546.84 24.1068C1546.84 24.8519 1546.72 25.4774 1546.5 25.9835C1546.28 26.4895 1545.96 26.872 1545.56 27.131C1545.15 27.3899 1544.68 27.5194 1544.13 27.5194C1543.78 27.5194 1543.48 27.4736 1543.21 27.382C1542.95 27.2903 1542.73 27.1668 1542.54 27.0114C1542.35 26.856 1542.2 26.6867 1542.07 26.5034H1542C1542.01 26.6588 1542.03 26.8461 1542.04 27.0652C1542.06 27.2844 1542.07 27.4756 1542.07 27.639V30.3284H1541.07V20.8496H1541.89L1542.02 21.8178H1542.07C1542.2 21.6186 1542.36 21.4373 1542.54 21.2739C1542.72 21.1066 1542.95 20.9751 1543.21 20.8795C1543.48 20.7799 1543.79 20.7301 1544.15 20.7301ZM1543.98 21.5668C1543.53 21.5668 1543.16 21.6544 1542.88 21.8297C1542.6 22.0051 1542.4 22.268 1542.28 22.6187C1542.15 22.9653 1542.08 23.4016 1542.07 23.9275V24.1188C1542.07 24.6726 1542.13 25.1408 1542.25 25.5233C1542.38 25.9058 1542.58 26.1966 1542.86 26.3958C1543.14 26.5951 1543.52 26.6947 1543.99 26.6947C1544.4 26.6947 1544.74 26.5851 1545.01 26.366C1545.28 26.1468 1545.48 25.842 1545.61 25.4515C1545.75 25.0571 1545.81 24.6049 1545.81 24.0949C1545.81 23.3219 1545.66 22.7083 1545.36 22.2541C1545.06 21.7959 1544.6 21.5668 1543.98 21.5668ZM1549.57 27.3999H1548.57V18.1004H1549.57V27.3999ZM1552.66 20.8496V27.3999H1551.67V20.8496H1552.66ZM1552.17 18.3992C1552.34 18.3992 1552.48 18.453 1552.59 18.5606C1552.71 18.6642 1552.77 18.8275 1552.77 19.0506C1552.77 19.2698 1552.71 19.4331 1552.59 19.5407C1552.48 19.6483 1552.34 19.7021 1552.17 19.7021C1552 19.7021 1551.86 19.6483 1551.74 19.5407C1551.63 19.4331 1551.58 19.2698 1551.58 19.0506C1551.58 18.8275 1551.63 18.6642 1551.74 18.5606C1551.86 18.453 1552 18.3992 1552.17 18.3992ZM1557.28 20.7301C1557.84 20.7301 1558.32 20.8536 1558.72 21.1006C1559.12 21.3476 1559.42 21.6943 1559.63 22.1405C1559.84 22.5828 1559.95 23.1008 1559.95 23.6944V24.31H1555.42C1555.44 25.079 1555.63 25.6647 1556 26.0671C1556.37 26.4696 1556.89 26.6708 1557.56 26.6708C1557.98 26.6708 1558.35 26.6329 1558.66 26.5572C1558.98 26.4815 1559.31 26.3699 1559.66 26.2225V27.0951C1559.33 27.2425 1559 27.3501 1558.67 27.4178C1558.35 27.4856 1557.96 27.5194 1557.52 27.5194C1556.89 27.5194 1556.34 27.3919 1555.87 27.1369C1555.41 26.8779 1555.04 26.4994 1554.78 26.0014C1554.53 25.5033 1554.4 24.8937 1554.4 24.1726C1554.4 23.4673 1554.51 22.8577 1554.75 22.3437C1554.99 21.8258 1555.32 21.4273 1555.75 21.1484C1556.19 20.8695 1556.7 20.7301 1557.28 20.7301ZM1557.27 21.5429C1556.74 21.5429 1556.32 21.7162 1556 22.0628C1555.69 22.4095 1555.5 22.8936 1555.44 23.5151H1558.91C1558.9 23.1247 1558.84 22.782 1558.72 22.4872C1558.61 22.1883 1558.43 21.9572 1558.19 21.7939C1557.95 21.6265 1557.65 21.5429 1557.27 21.5429ZM1564.61 20.7301C1564.74 20.7301 1564.88 20.738 1565.02 20.754C1565.17 20.7659 1565.29 20.7838 1565.41 20.8078L1565.28 21.7281C1565.17 21.7003 1565.05 21.6783 1564.92 21.6624C1564.79 21.6465 1564.67 21.6385 1564.55 21.6385C1564.29 21.6385 1564.04 21.6923 1563.8 21.7999C1563.57 21.9035 1563.37 22.0549 1563.19 22.2541C1563.02 22.4493 1562.88 22.6864 1562.78 22.9653C1562.68 23.2402 1562.63 23.547 1562.63 23.8857V27.3999H1561.63V20.8496H1562.46L1562.57 22.0569H1562.61C1562.74 21.8138 1562.91 21.5927 1563.1 21.3935C1563.29 21.1903 1563.51 21.0289 1563.76 20.9094C1564.02 20.7898 1564.3 20.7301 1564.61 20.7301ZM1570.88 25.6069C1570.88 26.0253 1570.77 26.3779 1570.56 26.6648C1570.36 26.9477 1570.06 27.1608 1569.67 27.3043C1569.28 27.4477 1568.82 27.5194 1568.28 27.5194C1567.82 27.5194 1567.43 27.4836 1567.09 27.4119C1566.76 27.3401 1566.46 27.2385 1566.21 27.1071V26.1926C1566.48 26.3241 1566.8 26.4437 1567.17 26.5512C1567.54 26.6588 1567.92 26.7126 1568.3 26.7126C1568.87 26.7126 1569.28 26.621 1569.54 26.4377C1569.79 26.2544 1569.92 26.0054 1569.92 25.6906C1569.92 25.5113 1569.87 25.3539 1569.76 25.2185C1569.66 25.079 1569.49 24.9455 1569.25 24.818C1569.02 24.6865 1568.68 24.5431 1568.26 24.3877C1567.84 24.2283 1567.48 24.071 1567.17 23.9156C1566.87 23.7562 1566.64 23.5629 1566.47 23.3358C1566.31 23.1087 1566.22 22.8139 1566.22 22.4513C1566.22 21.8975 1566.45 21.4731 1566.89 21.1783C1567.34 20.8795 1567.93 20.7301 1568.66 20.7301C1569.06 20.7301 1569.43 20.7699 1569.77 20.8496C1570.11 20.9253 1570.44 21.0289 1570.74 21.1604L1570.4 21.9553C1570.13 21.8397 1569.84 21.7421 1569.54 21.6624C1569.23 21.5827 1568.92 21.5429 1568.6 21.5429C1568.14 21.5429 1567.79 21.6186 1567.54 21.77C1567.3 21.9214 1567.17 22.1286 1567.17 22.3915C1567.17 22.5947 1567.23 22.7621 1567.34 22.8936C1567.46 23.0251 1567.64 23.1486 1567.89 23.2641C1568.14 23.3797 1568.47 23.5151 1568.88 23.6705C1569.29 23.8219 1569.65 23.9793 1569.95 24.1427C1570.25 24.3021 1570.48 24.4973 1570.63 24.7284C1570.8 24.9555 1570.88 25.2483 1570.88 25.6069Z" fill="#333333" fill-opacity="0.8"/>
<path d="M1620.51 4.96543C1620.88 4.96543 1621.14 5.08426 1621.27 5.32191C1621.41 5.55957 1621.48 5.83379 1621.48 6.14457C1621.48 6.23598 1621.47 6.36395 1621.46 6.52848C1621.44 6.69301 1621.43 6.8027 1621.42 6.85754L1620.79 10.8611H1620.2L1619.57 6.85754C1619.56 6.74176 1619.54 6.62598 1619.53 6.5102C1619.52 6.38832 1619.51 6.26645 1619.51 6.14457C1619.51 5.85207 1619.56 5.60832 1619.67 5.41332C1619.83 5.11473 1620.11 4.96543 1620.51 4.96543ZM1624.95 6.10801C1624.95 6.29082 1624.91 6.62902 1624.85 7.12262L1624.69 8.19207C1624.74 7.93613 1624.67 8.3627 1624.49 9.47176C1624.43 9.83738 1624.4 10.005 1624.4 9.97449L1624.25 10.8611H1623.67L1623.04 6.85754C1622.99 6.48582 1622.96 6.25121 1622.96 6.15371C1622.96 5.88559 1623 5.66012 1623.08 5.47731C1623.24 5.13606 1623.53 4.96543 1623.94 4.96543C1624.22 4.96543 1624.46 5.05684 1624.66 5.23965C1624.85 5.41637 1624.95 5.70582 1624.95 6.10801Z" fill="#333333" fill-opacity="0.8"/>
<path d="M1606.01 23.6669H1607.36L1602.98 36.9299H1601.63L1606.01 23.6669ZM1615.27 23.6852C1615.65 23.6852 1615.91 23.804 1616.04 24.0416C1616.18 24.2793 1616.25 24.5535 1616.25 24.8643C1616.25 24.9557 1616.24 25.0837 1616.22 25.2482C1616.21 25.4127 1616.2 25.5224 1616.19 25.5773L1615.55 29.5809H1614.97L1614.34 25.5773C1614.32 25.4615 1614.31 25.3457 1614.29 25.2299C1614.28 25.108 1614.28 24.9862 1614.28 24.8643C1614.28 24.5718 1614.33 24.328 1614.43 24.133C1614.6 23.8345 1614.88 23.6852 1615.27 23.6852ZM1619.71 24.8277C1619.71 25.0105 1619.68 25.3488 1619.61 25.8423L1619.46 26.9118C1619.5 26.6559 1619.43 27.0824 1619.26 28.1915C1619.2 28.5571 1619.17 28.7247 1619.17 28.6942L1619.02 29.5809H1618.43L1617.8 25.5773C1617.75 25.2055 1617.73 24.9709 1617.73 24.8734C1617.73 24.6053 1617.77 24.3798 1617.85 24.197C1618.01 23.8558 1618.29 23.6852 1618.71 23.6852C1618.99 23.6852 1619.23 23.7766 1619.42 23.9594C1619.62 24.1361 1619.71 24.4255 1619.71 24.8277Z" fill="#333333" fill-opacity="0.8"/>
<path d="M1673 2.89092C1673.4 2.89092 1673.68 3.01889 1673.82 3.27482C1673.97 3.53076 1674.05 3.82607 1674.05 4.16076C1674.05 4.2592 1674.04 4.39701 1674.02 4.5742C1674.01 4.75139 1673.99 4.86951 1673.98 4.92857L1673.3 9.24014H1672.67L1671.99 4.92857C1671.97 4.80389 1671.95 4.6792 1671.94 4.55451C1671.93 4.42326 1671.92 4.29201 1671.92 4.16076C1671.92 3.84576 1671.98 3.58326 1672.09 3.37326C1672.27 3.0517 1672.57 2.89092 1673 2.89092ZM1677.78 4.12139C1677.78 4.31826 1677.74 4.68248 1677.67 5.21404L1677.5 6.36576C1677.55 6.09014 1677.48 6.54951 1677.29 7.74389C1677.22 8.13764 1677.19 8.31811 1677.19 8.28529L1677.03 9.24014H1676.4L1675.72 4.92857C1675.67 4.52826 1675.64 4.27561 1675.64 4.17061C1675.64 3.88186 1675.69 3.63904 1675.77 3.44217C1675.94 3.07467 1676.25 2.89092 1676.7 2.89092C1677 2.89092 1677.25 2.98936 1677.46 3.18623C1677.67 3.37654 1677.78 3.68826 1677.78 4.12139Z" fill="black"/>
<path d="M1658.65 23.0309H1660.1L1655.39 37.3142H1653.94L1658.65 23.0309ZM1668.63 23.0506C1669.03 23.0506 1669.31 23.1786 1669.45 23.4345C1669.6 23.6904 1669.68 23.9857 1669.68 24.3204C1669.68 24.4189 1669.67 24.5567 1669.65 24.7339C1669.64 24.9111 1669.62 25.0292 1669.61 25.0882L1668.93 29.3998H1668.3L1667.62 25.0882C1667.6 24.9636 1667.59 24.8389 1667.57 24.7142C1667.56 24.5829 1667.55 24.4517 1667.55 24.3204C1667.55 24.0054 1667.61 23.7429 1667.72 23.5329C1667.9 23.2114 1668.2 23.0506 1668.63 23.0506ZM1673.41 24.2811C1673.41 24.4779 1673.37 24.8421 1673.3 25.3737L1673.13 26.5254C1673.18 26.2498 1673.11 26.7092 1672.92 27.9036C1672.85 28.2973 1672.82 28.4778 1672.82 28.445L1672.66 29.3998H1672.03L1671.35 25.0882C1671.3 24.6879 1671.27 24.4353 1671.27 24.3303C1671.27 24.0415 1671.32 23.7987 1671.4 23.6018C1671.57 23.2343 1671.88 23.0506 1672.33 23.0506C1672.63 23.0506 1672.89 23.149 1673.1 23.3459C1673.31 23.5362 1673.41 23.8479 1673.41 24.2811Z" fill="black"/>
<g filter="url(#filter0_d_260_1529)">
<rect width="1728" height="32.4" transform="translate(0 45)" fill="#383838"/>
<path d="M608.742 65H607.853V57.3545H612.109V58.1389H608.742V60.9419H611.905V61.7211H608.742V65ZM614.393 59.2685V65H613.525V59.2685H614.393ZM613.969 57.1244C614.112 57.1244 614.234 57.1715 614.335 57.2656C614.44 57.3562 614.492 57.4992 614.492 57.6944C614.492 57.8861 614.44 58.0291 614.335 58.1232C614.234 58.2173 614.112 58.2644 613.969 58.2644C613.819 58.2644 613.694 58.2173 613.593 58.1232C613.495 58.0291 613.446 57.8861 613.446 57.6944C613.446 57.4992 613.495 57.3562 613.593 57.2656C613.694 57.1715 613.819 57.1244 613.969 57.1244ZM619.218 59.1639C619.897 59.1639 620.412 59.3312 620.76 59.6659C621.109 59.9971 621.283 60.5305 621.283 61.2661V65H620.426V61.3237C620.426 60.846 620.316 60.4887 620.096 60.2516C619.88 60.0146 619.547 59.896 619.097 59.896C618.463 59.896 618.017 60.0756 617.759 60.4347C617.501 60.7937 617.372 61.315 617.372 61.9983V65H616.503V59.2685H617.204L617.335 60.0947H617.382C617.504 59.8925 617.659 59.7234 617.847 59.5875C618.036 59.448 618.247 59.3434 618.48 59.2737C618.714 59.2005 618.96 59.1639 619.218 59.1639ZM625.381 65.1046C624.656 65.1046 624.081 64.8571 623.655 64.362C623.234 63.8669 623.023 63.1313 623.023 62.1552C623.023 61.1685 623.239 60.4242 623.671 59.9222C624.103 59.4166 624.679 59.1639 625.397 59.1639C625.7 59.1639 625.965 59.204 626.192 59.2842C626.418 59.3644 626.614 59.4724 626.777 59.6084C626.941 59.7409 627.079 59.8925 627.191 60.0634H627.253C627.239 59.9553 627.225 59.8071 627.212 59.6189C627.198 59.4306 627.191 59.2772 627.191 59.1587V56.8629H628.059V65H627.358L627.227 64.1842H627.191C627.083 64.355 626.945 64.5102 626.777 64.6496C626.614 64.7891 626.417 64.9006 626.187 64.9843C625.96 65.0645 625.692 65.1046 625.381 65.1046ZM625.517 64.3829C626.131 64.3829 626.565 64.2086 626.819 63.86C627.074 63.5113 627.201 62.9936 627.201 62.3068V62.1499C627.201 61.4213 627.079 60.8617 626.835 60.4713C626.594 60.0808 626.155 59.8856 625.517 59.8856C624.984 59.8856 624.585 60.0913 624.32 60.5026C624.055 60.9105 623.922 61.4683 623.922 62.1761C623.922 62.8803 624.053 63.4242 624.314 63.8077C624.579 64.1912 624.98 64.3829 625.517 64.3829ZM638.148 65L637.206 62.5735H634.142L633.206 65H632.306L635.298 57.3231H636.098L639.068 65H638.148ZM636.94 61.7839L636.046 59.3731C636.025 59.3103 635.99 59.2075 635.941 59.0645C635.896 58.9216 635.849 58.7734 635.8 58.62C635.751 58.4666 635.711 58.3429 635.679 58.2487C635.645 58.3917 635.606 58.5346 635.564 58.6775C635.526 58.817 635.488 58.9477 635.449 59.0698C635.411 59.1883 635.378 59.2894 635.35 59.3731L634.44 61.7839H636.94ZM642.397 57.3545C643.384 57.3545 644.104 57.548 644.557 57.935C645.014 58.3185 645.242 58.8693 645.242 59.5875C645.242 59.9117 645.188 60.2202 645.08 60.5131C644.976 60.8025 644.805 61.0587 644.568 61.2818C644.331 61.5015 644.019 61.6758 643.632 61.8048C643.248 61.9303 642.777 61.993 642.22 61.993H641.289V65H640.4V57.3545H642.397ZM642.314 58.1128H641.289V61.2295H642.12C642.608 61.2295 643.014 61.1772 643.339 61.0727C643.666 60.9681 643.912 60.799 644.076 60.5654C644.24 60.3283 644.322 60.0146 644.322 59.6241C644.322 59.1151 644.16 58.7368 643.836 58.4893C643.511 58.2383 643.004 58.1128 642.314 58.1128ZM647.112 65V57.3545H648.002V65H647.112ZM657.003 63.4312C657.003 63.7972 656.91 64.1058 656.726 64.3568C656.544 64.6043 656.283 64.7908 655.941 64.9163C655.603 65.0418 655.199 65.1046 654.728 65.1046C654.327 65.1046 653.98 65.0732 653.687 65.0105C653.394 64.9477 653.138 64.8588 652.919 64.7438V63.9436C653.152 64.0587 653.431 64.1633 653.755 64.2574C654.08 64.3515 654.411 64.3986 654.749 64.3986C655.244 64.3986 655.603 64.3184 655.826 64.1581C656.049 63.9977 656.161 63.7798 656.161 63.5044C656.161 63.3475 656.116 63.2098 656.025 63.0912C655.938 62.9692 655.79 62.8524 655.58 62.7409C655.371 62.6258 655.082 62.5003 654.712 62.3643C654.346 62.2249 654.029 62.0872 653.761 61.9512C653.496 61.8118 653.29 61.6427 653.143 61.4439C653.001 61.2452 652.929 60.9872 652.929 60.67C652.929 60.1854 653.124 59.8141 653.515 59.5561C653.909 59.2946 654.425 59.1639 655.063 59.1639C655.408 59.1639 655.73 59.1988 656.03 59.2685C656.333 59.3347 656.616 59.4254 656.877 59.5404L656.584 60.2359C656.347 60.1348 656.095 60.0494 655.826 59.9797C655.558 59.91 655.284 59.8751 655.005 59.8751C654.604 59.8751 654.296 59.9413 654.08 60.0738C653.867 60.2063 653.761 60.3876 653.761 60.6177C653.761 60.7955 653.809 60.9419 653.907 61.057C654.008 61.172 654.168 61.2801 654.388 61.3812C654.608 61.4823 654.897 61.6008 655.256 61.7368C655.615 61.8693 655.926 62.007 656.187 62.1499C656.448 62.2894 656.649 62.4602 656.788 62.6624C656.931 62.8611 657.003 63.1174 657.003 63.4312ZM663.402 59.2685V65H662.691L662.565 64.1947H662.518C662.399 64.3934 662.246 64.5607 662.058 64.6967C661.87 64.8327 661.657 64.9338 661.42 65C661.186 65.0697 660.937 65.1046 660.672 65.1046C660.219 65.1046 659.839 65.0314 659.532 64.885C659.225 64.7385 658.993 64.5119 658.836 64.2051C658.683 63.8983 658.606 63.5044 658.606 63.0233V59.2685H659.485V62.9605C659.485 63.4381 659.593 63.7955 659.809 64.0325C660.025 64.2661 660.355 64.3829 660.797 64.3829C661.223 64.3829 661.561 64.3027 661.812 64.1424C662.067 63.982 662.25 63.7467 662.361 63.4364C662.473 63.1226 662.528 62.7391 662.528 62.2859V59.2685H663.402ZM668.201 59.1639C668.915 59.1639 669.485 59.4097 669.911 59.9012C670.336 60.3928 670.549 61.1319 670.549 62.1186C670.549 62.7705 670.451 63.3178 670.256 63.7606C670.06 64.2034 669.785 64.5381 669.429 64.7647C669.077 64.9913 668.661 65.1046 668.18 65.1046C667.876 65.1046 667.61 65.0645 667.379 64.9843C667.149 64.9041 666.952 64.796 666.789 64.6601C666.625 64.5241 666.489 64.3759 666.381 64.2156H666.318C666.328 64.3515 666.341 64.5154 666.355 64.7071C666.372 64.8989 666.381 65.0662 666.381 65.2092V67.5625H665.507V59.2685H666.224L666.339 60.1157H666.381C666.492 59.9413 666.628 59.7827 666.789 59.6398C666.949 59.4933 667.144 59.3783 667.374 59.2946C667.608 59.2075 667.883 59.1639 668.201 59.1639ZM668.049 59.896C667.651 59.896 667.331 59.9727 667.087 60.1261C666.846 60.2795 666.67 60.5096 666.558 60.8164C666.447 61.1197 666.388 61.5015 666.381 61.9617V62.129C666.381 62.6136 666.433 63.0233 666.538 63.3579C666.646 63.6926 666.822 63.9471 667.066 64.1214C667.313 64.2958 667.644 64.3829 668.059 64.3829C668.415 64.3829 668.711 64.287 668.948 64.0953C669.185 63.9035 669.361 63.6368 669.477 63.2952C669.595 62.95 669.654 62.5543 669.654 62.1081C669.654 61.4317 669.522 60.8948 669.257 60.4974C668.995 60.0965 668.593 59.896 668.049 59.896ZM675.028 59.1639C675.743 59.1639 676.313 59.4097 676.738 59.9012C677.164 60.3928 677.376 61.1319 677.376 62.1186C677.376 62.7705 677.279 63.3178 677.083 63.7606C676.888 64.2034 676.613 64.5381 676.257 64.7647C675.905 64.9913 675.488 65.1046 675.007 65.1046C674.704 65.1046 674.437 65.0645 674.207 64.9843C673.977 64.9041 673.78 64.796 673.616 64.6601C673.452 64.5241 673.317 64.3759 673.208 64.2156H673.146C673.156 64.3515 673.168 64.5154 673.182 64.7071C673.2 64.8989 673.208 65.0662 673.208 65.2092V67.5625H672.335V59.2685H673.052L673.167 60.1157H673.208C673.32 59.9413 673.456 59.7827 673.616 59.6398C673.777 59.4933 673.972 59.3783 674.202 59.2946C674.436 59.2075 674.711 59.1639 675.028 59.1639ZM674.877 59.896C674.479 59.896 674.158 59.9727 673.914 60.1261C673.674 60.2795 673.498 60.5096 673.386 60.8164C673.275 61.1197 673.215 61.5015 673.208 61.9617V62.129C673.208 62.6136 673.261 63.0233 673.365 63.3579C673.473 63.6926 673.649 63.9471 673.894 64.1214C674.141 64.2958 674.472 64.3829 674.887 64.3829C675.243 64.3829 675.539 64.287 675.776 64.0953C676.013 63.9035 676.189 63.6368 676.304 63.2952C676.423 62.95 676.482 62.5543 676.482 62.1081C676.482 61.4317 676.35 60.8948 676.085 60.4974C675.823 60.0965 675.421 59.896 674.877 59.896ZM680.036 65H679.163V56.8629H680.036V65ZM683.01 59.2685V65H682.142V59.2685H683.01ZM682.586 57.1244C682.729 57.1244 682.851 57.1715 682.952 57.2656C683.057 57.3562 683.109 57.4992 683.109 57.6944C683.109 57.8861 683.057 58.0291 682.952 58.1232C682.851 58.2173 682.729 58.2644 682.586 58.2644C682.436 58.2644 682.311 58.2173 682.21 58.1232C682.112 58.0291 682.063 57.8861 682.063 57.6944C682.063 57.4992 682.112 57.3562 682.21 57.2656C682.311 57.1715 682.436 57.1244 682.586 57.1244ZM687.327 59.1639C687.816 59.1639 688.234 59.272 688.583 59.4881C688.931 59.7043 689.198 60.0076 689.383 60.398C689.567 60.785 689.66 61.2383 689.66 61.7577V62.2964H685.701C685.712 62.9692 685.879 63.4817 686.203 63.8338C686.527 64.1859 686.984 64.362 687.573 64.362C687.936 64.362 688.257 64.3289 688.536 64.2626C688.814 64.1964 689.104 64.0988 689.404 63.9698V64.7333C689.114 64.8623 688.827 64.9564 688.541 65.0157C688.258 65.075 687.924 65.1046 687.537 65.1046C686.986 65.1046 686.505 64.993 686.093 64.7699C685.685 64.5433 685.368 64.2121 685.142 63.7763C684.915 63.3405 684.802 62.8071 684.802 62.1761C684.802 61.559 684.904 61.0256 685.11 60.5758C685.319 60.1226 685.612 59.774 685.989 59.53C686.369 59.2859 686.815 59.1639 687.327 59.1639ZM687.317 59.8751C686.853 59.8751 686.484 60.0268 686.208 60.3301C685.933 60.6334 685.769 61.057 685.717 61.6008H688.75C688.746 61.2592 688.692 60.9593 688.588 60.7014C688.487 60.4399 688.332 60.2377 688.122 60.0947C687.913 59.9483 687.645 59.8751 687.317 59.8751ZM694.009 59.1639C694.124 59.1639 694.244 59.1709 694.37 59.1848C694.495 59.1953 694.607 59.211 694.704 59.2319L694.595 60.0372C694.5 60.0128 694.396 59.9936 694.281 59.9797C694.166 59.9657 694.058 59.9588 693.957 59.9588C693.726 59.9588 693.509 60.0058 693.303 60.1C693.101 60.1906 692.923 60.3231 692.769 60.4974C692.616 60.6682 692.496 60.8757 692.409 61.1197C692.321 61.3603 692.278 61.6287 692.278 61.9251V65H691.405V59.2685H692.126L692.22 60.3248H692.257C692.376 60.1122 692.518 59.9187 692.686 59.7444C692.853 59.5666 693.047 59.4254 693.266 59.3208C693.489 59.2162 693.737 59.1639 694.009 59.1639ZM699.765 63.4312C699.765 63.7972 699.672 64.1058 699.487 64.3568C699.306 64.6043 699.045 64.7908 698.703 64.9163C698.365 65.0418 697.96 65.1046 697.49 65.1046C697.089 65.1046 696.742 65.0732 696.449 65.0105C696.156 64.9477 695.9 64.8588 695.68 64.7438V63.9436C695.914 64.0587 696.193 64.1633 696.517 64.2574C696.841 64.3515 697.173 64.3986 697.511 64.3986C698.006 64.3986 698.365 64.3184 698.588 64.1581C698.811 63.9977 698.923 63.7798 698.923 63.5044C698.923 63.3475 698.877 63.2098 698.787 63.0912C698.7 62.9692 698.551 62.8524 698.342 62.7409C698.133 62.6258 697.844 62.5003 697.474 62.3643C697.108 62.2249 696.791 62.0872 696.522 61.9512C696.257 61.8118 696.052 61.6427 695.905 61.4439C695.762 61.2452 695.691 60.9872 695.691 60.67C695.691 60.1854 695.886 59.8141 696.277 59.5561C696.67 59.2946 697.186 59.1639 697.824 59.1639C698.17 59.1639 698.492 59.1988 698.792 59.2685C699.095 59.3347 699.378 59.4254 699.639 59.5404L699.346 60.2359C699.109 60.1348 698.856 60.0494 698.588 59.9797C698.32 59.91 698.046 59.8751 697.767 59.8751C697.366 59.8751 697.057 59.9413 696.841 60.0738C696.629 60.2063 696.522 60.3876 696.522 60.6177C696.522 60.7955 696.571 60.9419 696.669 61.057C696.77 61.172 696.93 61.2801 697.15 61.3812C697.369 61.4823 697.659 61.6008 698.018 61.7368C698.377 61.8693 698.687 62.007 698.949 62.1499C699.21 62.2894 699.411 62.4602 699.55 62.6624C699.693 62.8611 699.765 63.1174 699.765 63.4312Z" fill="white"/>
<path d="M776.794 58.0291C776.372 58.0291 775.992 58.1023 775.654 58.2487C775.319 58.3917 775.033 58.6008 774.796 58.8763C774.563 59.1482 774.383 59.4777 774.258 59.8646C774.132 60.2516 774.069 60.6874 774.069 61.172C774.069 61.8135 774.169 62.3713 774.367 62.8454C774.57 63.3161 774.869 63.6804 775.267 63.9384C775.668 64.1964 776.168 64.3254 776.768 64.3254C777.109 64.3254 777.43 64.2975 777.73 64.2417C778.033 64.1825 778.328 64.1092 778.614 64.0221V64.796C778.335 64.9006 778.042 64.9773 777.735 65.0261C777.428 65.0784 777.064 65.1046 776.642 65.1046C775.865 65.1046 775.215 64.9442 774.692 64.6235C774.172 64.2992 773.782 63.8425 773.52 63.2533C773.262 62.6642 773.133 61.9686 773.133 61.1668C773.133 60.5881 773.213 60.0599 773.374 59.5822C773.538 59.1011 773.775 58.6863 774.085 58.3376C774.399 57.989 774.782 57.7205 775.235 57.5323C775.692 57.3405 776.215 57.2447 776.804 57.2447C777.191 57.2447 777.564 57.283 777.923 57.3597C778.282 57.4364 778.607 57.5462 778.896 57.6892L778.54 58.4422C778.296 58.3307 778.028 58.2348 777.735 58.1546C777.446 58.0709 777.132 58.0291 776.794 58.0291ZM785.353 62.1238C785.353 62.5944 785.292 63.0145 785.17 63.3841C785.048 63.7536 784.871 64.0657 784.641 64.3202C784.411 64.5747 784.132 64.7699 783.805 64.9059C783.48 65.0383 783.113 65.1046 782.701 65.1046C782.318 65.1046 781.966 65.0383 781.645 64.9059C781.328 64.7699 781.052 64.5747 780.819 64.3202C780.589 64.0657 780.409 63.7536 780.28 63.3841C780.154 63.0145 780.092 62.5944 780.092 62.1238C780.092 61.4962 780.198 60.9628 780.411 60.5236C780.623 60.0808 780.927 59.7444 781.321 59.5143C781.718 59.2807 782.19 59.1639 782.738 59.1639C783.261 59.1639 783.717 59.2807 784.108 59.5143C784.502 59.7478 784.807 60.086 785.023 60.5288C785.243 60.9681 785.353 61.4997 785.353 62.1238ZM780.991 62.1238C780.991 62.584 781.052 62.9832 781.174 63.3213C781.296 63.6595 781.484 63.921 781.739 64.1058C781.993 64.2905 782.321 64.3829 782.722 64.3829C783.12 64.3829 783.446 64.2905 783.7 64.1058C783.958 63.921 784.148 63.6595 784.27 63.3213C784.392 62.9832 784.453 62.584 784.453 62.1238C784.453 61.6671 784.392 61.2731 784.27 60.9419C784.148 60.6072 783.96 60.3492 783.705 60.1679C783.451 59.9867 783.121 59.896 782.717 59.896C782.121 59.896 781.683 60.093 781.404 60.4869C781.129 60.8809 780.991 61.4265 780.991 62.1238ZM793.347 59.1639C793.978 59.1639 794.453 59.3295 794.774 59.6607C795.095 59.9884 795.255 60.5166 795.255 61.2452V65H794.398V61.2871C794.398 60.8234 794.297 60.4765 794.094 60.2464C793.896 60.0128 793.599 59.896 793.205 59.896C792.651 59.896 792.248 60.0564 791.997 60.3771C791.746 60.6979 791.621 61.1703 791.621 61.7943V65H790.758V61.2871C790.758 60.9768 790.713 60.7188 790.622 60.5131C790.535 60.3074 790.402 60.154 790.225 60.0529C790.05 59.9483 789.829 59.896 789.56 59.896C789.18 59.896 788.875 59.9745 788.645 60.1313C788.415 60.2882 788.248 60.5218 788.143 60.8321C788.042 61.1389 787.992 61.5172 787.992 61.9669V65H787.123V59.2685H787.824L787.955 60.079H788.002C788.117 59.8803 788.262 59.713 788.436 59.577C788.61 59.4411 788.806 59.3382 789.022 59.2685C789.238 59.1988 789.468 59.1639 789.712 59.1639C790.148 59.1639 790.512 59.2458 790.805 59.4097C791.101 59.57 791.316 59.8158 791.448 60.147H791.495C791.684 59.8158 791.942 59.57 792.269 59.4097C792.597 59.2458 792.956 59.1639 793.347 59.1639ZM800.002 59.1639C800.716 59.1639 801.286 59.4097 801.712 59.9012C802.137 60.3928 802.35 61.1319 802.35 62.1186C802.35 62.7705 802.252 63.3178 802.057 63.7606C801.862 64.2034 801.586 64.5381 801.231 64.7647C800.879 64.9913 800.462 65.1046 799.981 65.1046C799.678 65.1046 799.411 65.0645 799.181 64.9843C798.951 64.9041 798.754 64.796 798.59 64.6601C798.426 64.5241 798.29 64.3759 798.182 64.2156H798.119C798.13 64.3515 798.142 64.5154 798.156 64.7071C798.173 64.8989 798.182 65.0662 798.182 65.2092V67.5625H797.309V59.2685H798.025L798.14 60.1157H798.182C798.293 59.9413 798.429 59.7827 798.59 59.6398C798.75 59.4933 798.945 59.3783 799.175 59.2946C799.409 59.2075 799.684 59.1639 800.002 59.1639ZM799.85 59.896C799.453 59.896 799.132 59.9727 798.888 60.1261C798.647 60.2795 798.471 60.5096 798.36 60.8164C798.248 61.1197 798.189 61.5015 798.182 61.9617V62.129C798.182 62.6136 798.234 63.0233 798.339 63.3579C798.447 63.6926 798.623 63.9471 798.867 64.1214C799.114 64.2958 799.446 64.3829 799.861 64.3829C800.216 64.3829 800.512 64.287 800.75 64.0953C800.987 63.9035 801.163 63.6368 801.278 63.2952C801.396 62.95 801.456 62.5543 801.456 62.1081C801.456 61.4317 801.323 60.8948 801.058 60.4974C800.797 60.0965 800.394 59.896 799.85 59.896ZM806.28 59.1743C806.964 59.1743 807.471 59.3277 807.802 59.6345C808.133 59.9413 808.299 60.4312 808.299 61.104V65H807.666L807.499 64.1528H807.457C807.297 64.362 807.129 64.5381 806.955 64.681C806.781 64.8205 806.579 64.9268 806.348 65C806.122 65.0697 805.843 65.1046 805.512 65.1046C805.163 65.1046 804.853 65.0436 804.581 64.9216C804.312 64.7995 804.1 64.6148 803.943 64.3672C803.789 64.1197 803.713 63.8059 803.713 63.4259C803.713 62.8542 803.939 62.4149 804.393 62.1081C804.846 61.8013 805.536 61.634 806.463 61.6061L807.452 61.5642V61.2138C807.452 60.7188 807.345 60.3719 807.133 60.1732C806.92 59.9745 806.62 59.8751 806.233 59.8751C805.934 59.8751 805.648 59.9187 805.376 60.0058C805.104 60.093 804.846 60.1958 804.602 60.3144L804.335 59.6555C804.593 59.523 804.889 59.4097 805.224 59.3155C805.559 59.2214 805.911 59.1743 806.28 59.1743ZM807.441 62.1761L806.568 62.2127C805.853 62.2406 805.35 62.3574 805.057 62.5631C804.764 62.7688 804.617 63.0599 804.617 63.4364C804.617 63.7641 804.717 64.0064 804.916 64.1633C805.114 64.3202 805.377 64.3986 805.705 64.3986C806.214 64.3986 806.631 64.2574 806.955 63.975C807.279 63.6926 807.441 63.269 807.441 62.7043V62.1761ZM812.962 59.1639C813.077 59.1639 813.197 59.1709 813.323 59.1848C813.448 59.1953 813.56 59.211 813.657 59.2319L813.547 60.0372C813.453 60.0128 813.349 59.9936 813.234 59.9797C813.119 59.9657 813.011 59.9588 812.909 59.9588C812.679 59.9588 812.461 60.0058 812.256 60.1C812.054 60.1906 811.876 60.3231 811.722 60.4974C811.569 60.6682 811.449 60.8757 811.362 61.1197C811.274 61.3603 811.231 61.6287 811.231 61.9251V65H810.357V59.2685H811.079L811.173 60.3248H811.21C811.328 60.1122 811.471 59.9187 811.639 59.7444C811.806 59.5666 812 59.4254 812.219 59.3208C812.442 59.2162 812.69 59.1639 812.962 59.1639ZM817.217 59.1639C817.705 59.1639 818.123 59.272 818.472 59.4881C818.82 59.7043 819.087 60.0076 819.272 60.398C819.457 60.785 819.549 61.2383 819.549 61.7577V62.2964H815.59C815.601 62.9692 815.768 63.4817 816.092 63.8338C816.417 64.1859 816.873 64.362 817.462 64.362C817.825 64.362 818.146 64.3289 818.425 64.2626C818.704 64.1964 818.993 64.0988 819.293 63.9698V64.7333C819.003 64.8623 818.716 64.9564 818.43 65.0157C818.148 65.075 817.813 65.1046 817.426 65.1046C816.875 65.1046 816.394 64.993 815.982 64.7699C815.575 64.5433 815.257 64.2121 815.031 63.7763C814.804 63.3405 814.691 62.8071 814.691 62.1761C814.691 61.559 814.794 61.0256 814.999 60.5758C815.209 60.1226 815.501 59.774 815.878 59.53C816.258 59.2859 816.704 59.1639 817.217 59.1639ZM817.206 59.8751C816.743 59.8751 816.373 60.0268 816.098 60.3301C815.822 60.6334 815.658 61.057 815.606 61.6008H818.639C818.636 61.2592 818.582 60.9593 818.477 60.7014C818.376 60.4399 818.221 60.2377 818.012 60.0947C817.802 59.9483 817.534 59.8751 817.206 59.8751ZM827.745 58.0291C827.323 58.0291 826.943 58.1023 826.605 58.2487C826.27 58.3917 825.984 58.6008 825.747 58.8763C825.514 59.1482 825.334 59.4777 825.209 59.8646C825.083 60.2516 825.02 60.6874 825.02 61.172C825.02 61.8135 825.12 62.3713 825.318 62.8454C825.521 63.3161 825.821 63.6804 826.218 63.9384C826.619 64.1964 827.119 64.3254 827.719 64.3254C828.06 64.3254 828.381 64.2975 828.681 64.2417C828.984 64.1825 829.279 64.1092 829.565 64.0221V64.796C829.286 64.9006 828.993 64.9773 828.686 65.0261C828.379 65.0784 828.015 65.1046 827.593 65.1046C826.816 65.1046 826.166 64.9442 825.643 64.6235C825.123 64.2992 824.733 63.8425 824.471 63.2533C824.213 62.6642 824.084 61.9686 824.084 61.1668C824.084 60.5881 824.165 60.0599 824.325 59.5822C824.489 59.1011 824.726 58.6863 825.036 58.3376C825.35 57.989 825.733 57.7205 826.187 57.5323C826.643 57.3405 827.166 57.2447 827.755 57.2447C828.142 57.2447 828.515 57.283 828.875 57.3597C829.234 57.4364 829.558 57.5462 829.847 57.6892L829.492 58.4422C829.248 58.3307 828.979 58.2348 828.686 58.1546C828.397 58.0709 828.083 58.0291 827.745 58.0291ZM837.564 61.104C837.564 61.9652 837.407 62.6851 837.093 63.2638C836.78 63.8391 836.325 64.2731 835.728 64.566C835.136 64.8553 834.416 65 833.569 65H831.493V57.3545H833.799C834.576 57.3545 835.246 57.4974 835.807 57.7833C836.368 58.0657 836.801 58.4858 837.104 59.0436C837.411 59.5979 837.564 60.2847 837.564 61.104ZM836.628 61.1354C836.628 60.4486 836.513 59.8821 836.283 59.4358C836.056 58.9896 835.722 58.6584 835.279 58.4422C834.839 58.2226 834.301 58.1128 833.663 58.1128H832.382V64.2365H833.464C834.517 64.2365 835.307 63.9768 835.833 63.4573C836.363 62.9378 836.628 62.1639 836.628 61.1354ZM842.896 65L840.328 58.233H840.287C840.301 58.376 840.313 58.5503 840.323 58.756C840.334 58.9617 840.342 59.1865 840.349 59.4306C840.356 59.6711 840.36 59.9169 840.36 60.1679V65H839.534V57.3545H840.851L843.273 63.7135H843.309L845.767 57.3545H847.075V65H846.196V60.1052C846.196 59.8786 846.199 59.652 846.206 59.4254C846.213 59.1953 846.222 58.9791 846.233 58.7769C846.243 58.5712 846.254 58.3934 846.264 58.2435H846.222L843.623 65H842.896ZM856.067 61.1668C856.067 61.756 855.992 62.2929 855.842 62.7775C855.693 63.2586 855.469 63.6735 855.173 64.0221C854.88 64.3672 854.516 64.6339 854.08 64.8222C853.644 65.0105 853.139 65.1046 852.564 65.1046C851.971 65.1046 851.453 65.0105 851.01 64.8222C850.571 64.6339 850.205 64.3655 849.912 64.0169C849.623 63.6682 849.405 63.2516 849.259 62.767C849.116 62.2824 849.044 61.7455 849.044 61.1563C849.044 60.3754 849.173 59.6903 849.431 59.1011C849.689 58.5119 850.08 58.0535 850.603 57.7258C851.129 57.3981 851.788 57.2342 852.579 57.2342C853.336 57.2342 853.972 57.3963 854.488 57.7205C855.007 58.0448 855.4 58.5015 855.665 59.0907C855.933 59.6764 856.067 60.3684 856.067 61.1668ZM849.98 61.1668C849.98 61.8152 850.073 62.3765 850.257 62.8507C850.442 63.3248 850.725 63.6909 851.105 63.9489C851.488 64.2069 851.974 64.3359 852.564 64.3359C853.156 64.3359 853.641 64.2069 854.017 63.9489C854.397 63.6909 854.678 63.3248 854.859 62.8507C855.041 62.3765 855.131 61.8152 855.131 61.1668C855.131 60.1802 854.924 59.4097 854.509 58.8553C854.098 58.2975 853.454 58.0186 852.579 58.0186C851.987 58.0186 851.499 58.1459 851.115 58.4004C850.732 58.6549 850.446 59.0175 850.257 59.4881C850.073 59.9553 849.98 60.5148 849.98 61.1668ZM861.619 63.4312C861.619 63.7972 861.527 64.1058 861.342 64.3568C861.161 64.6043 860.899 64.7908 860.558 64.9163C860.219 65.0418 859.815 65.1046 859.344 65.1046C858.943 65.1046 858.596 65.0732 858.304 65.0105C858.011 64.9477 857.755 64.8588 857.535 64.7438V63.9436C857.768 64.0587 858.047 64.1633 858.372 64.2574C858.696 64.3515 859.027 64.3986 859.365 64.3986C859.86 64.3986 860.219 64.3184 860.442 64.1581C860.666 63.9977 860.777 63.7798 860.777 63.5044C860.777 63.3475 860.732 63.2098 860.641 63.0912C860.554 62.9692 860.406 62.8524 860.197 62.7409C859.988 62.6258 859.698 62.5003 859.329 62.3643C858.963 62.2249 858.645 62.0872 858.377 61.9512C858.112 61.8118 857.906 61.6427 857.76 61.4439C857.617 61.2452 857.545 60.9872 857.545 60.67C857.545 60.1854 857.741 59.8141 858.131 59.5561C858.525 59.2946 859.041 59.1639 859.679 59.1639C860.024 59.1639 860.347 59.1988 860.646 59.2685C860.95 59.3347 861.232 59.4254 861.494 59.5404L861.201 60.2359C860.964 60.1348 860.711 60.0494 860.442 59.9797C860.174 59.91 859.9 59.8751 859.621 59.8751C859.221 59.8751 858.912 59.9413 858.696 60.0738C858.483 60.2063 858.377 60.3876 858.377 60.6177C858.377 60.7955 858.426 60.9419 858.523 61.057C858.624 61.172 858.785 61.2801 859.004 61.3812C859.224 61.4823 859.513 61.6008 859.872 61.7368C860.232 61.8693 860.542 62.007 860.803 62.1499C861.065 62.2894 861.265 62.4602 861.405 62.6624C861.548 62.8611 861.619 63.1174 861.619 63.4312Z" fill="white"/>
<path d="M937.415 57.3545C938.401 57.3545 939.121 57.548 939.574 57.935C940.031 58.3185 940.26 58.8693 940.26 59.5875C940.26 59.9117 940.205 60.2202 940.097 60.5131C939.993 60.8025 939.822 61.0587 939.585 61.2818C939.348 61.5015 939.036 61.6758 938.649 61.8048C938.265 61.9303 937.795 61.993 937.237 61.993H936.306V65H935.417V57.3545H937.415ZM937.331 58.1128H936.306V61.2295H937.137C937.626 61.2295 938.032 61.1772 938.356 61.0727C938.684 60.9681 938.929 60.799 939.093 60.5654C939.257 60.3283 939.339 60.0146 939.339 59.6241C939.339 59.1151 939.177 58.7368 938.853 58.4893C938.529 58.2383 938.021 58.1128 937.331 58.1128ZM944.603 59.1639C944.718 59.1639 944.839 59.1709 944.964 59.1848C945.09 59.1953 945.201 59.211 945.299 59.2319L945.189 60.0372C945.095 60.0128 944.99 59.9936 944.875 59.9797C944.76 59.9657 944.652 59.9588 944.551 59.9588C944.321 59.9588 944.103 60.0058 943.897 60.1C943.695 60.1906 943.517 60.3231 943.364 60.4974C943.21 60.6682 943.09 60.8757 943.003 61.1197C942.916 61.3603 942.872 61.6287 942.872 61.9251V65H941.999V59.2685H942.721L942.815 60.3248H942.851C942.97 60.1122 943.113 59.9187 943.28 59.7444C943.448 59.5666 943.641 59.4254 943.861 59.3208C944.084 59.2162 944.331 59.1639 944.603 59.1639ZM947.519 59.2685V65H946.651V59.2685H947.519ZM947.096 57.1244C947.239 57.1244 947.361 57.1715 947.462 57.2656C947.566 57.3562 947.619 57.4992 947.619 57.6944C947.619 57.8861 947.566 58.0291 947.462 58.1232C947.361 58.2173 947.239 58.2644 947.096 58.2644C946.946 58.2644 946.82 58.2173 946.719 58.1232C946.622 58.0291 946.573 57.8861 946.573 57.6944C946.573 57.4992 946.622 57.3562 946.719 57.2656C946.82 57.1715 946.946 57.1244 947.096 57.1244ZM951.926 65.1046C951.41 65.1046 950.955 64.9983 950.561 64.7856C950.167 64.5729 949.86 64.2487 949.641 63.8129C949.421 63.3771 949.311 62.828 949.311 62.1656C949.311 61.4718 949.426 60.9053 949.656 60.466C949.89 60.0233 950.211 59.6956 950.619 59.4829C951.026 59.2702 951.49 59.1639 952.01 59.1639C952.295 59.1639 952.571 59.1935 952.836 59.2528C953.104 59.3086 953.324 59.38 953.495 59.4672L953.233 60.1941C953.059 60.1244 952.857 60.0616 952.627 60.0058C952.4 59.9501 952.187 59.9222 951.989 59.9222C951.591 59.9222 951.26 60.0076 950.995 60.1784C950.734 60.3492 950.537 60.6003 950.404 60.9315C950.275 61.2627 950.211 61.6706 950.211 62.1552C950.211 62.6188 950.273 63.0145 950.399 63.3423C950.528 63.67 950.718 63.921 950.969 64.0953C951.223 64.2661 951.541 64.3515 951.921 64.3515C952.224 64.3515 952.498 64.3202 952.742 64.2574C952.986 64.1912 953.207 64.1145 953.406 64.0273V64.8013C953.214 64.8989 953 64.9739 952.763 65.0261C952.529 65.0784 952.25 65.1046 951.926 65.1046ZM955.904 59.2685V65H955.036V59.2685H955.904ZM955.48 57.1244C955.623 57.1244 955.745 57.1715 955.846 57.2656C955.951 57.3562 956.003 57.4992 956.003 57.6944C956.003 57.8861 955.951 58.0291 955.846 58.1232C955.745 58.2173 955.623 58.2644 955.48 58.2644C955.33 58.2644 955.205 58.2173 955.104 58.1232C955.006 58.0291 954.957 57.8861 954.957 57.6944C954.957 57.4992 955.006 57.3562 955.104 57.2656C955.205 57.1715 955.33 57.1244 955.48 57.1244ZM960.729 59.1639C961.408 59.1639 961.923 59.3312 962.271 59.6659C962.62 59.9971 962.794 60.5305 962.794 61.2661V65H961.937V61.3237C961.937 60.846 961.827 60.4887 961.607 60.2516C961.391 60.0146 961.058 59.896 960.608 59.896C959.974 59.896 959.527 60.0756 959.269 60.4347C959.012 60.7937 958.883 61.315 958.883 61.9983V65H958.014V59.2685H958.715L958.846 60.0947H958.893C959.015 59.8925 959.17 59.7234 959.358 59.5875C959.547 59.448 959.758 59.3434 959.991 59.2737C960.225 59.2005 960.471 59.1639 960.729 59.1639ZM966.453 67.5729C965.7 67.5729 965.119 67.4317 964.711 67.1493C964.304 66.8704 964.1 66.4782 964.1 65.9727C964.1 65.6136 964.213 65.3068 964.44 65.0523C964.67 64.7978 964.987 64.6287 965.391 64.545C965.241 64.4753 965.112 64.3707 965.004 64.2313C964.9 64.0918 964.847 63.9314 964.847 63.7502C964.847 63.541 964.905 63.3579 965.02 63.2011C965.139 63.0407 965.318 62.8873 965.559 62.7409C965.259 62.6188 965.015 62.4131 964.827 62.1238C964.642 61.8309 964.549 61.491 964.549 61.104C964.549 60.6926 964.635 60.3423 964.806 60.0529C964.976 59.76 965.224 59.5369 965.548 59.3835C965.872 59.2301 966.265 59.1534 966.725 59.1534C966.826 59.1534 966.927 59.1587 967.028 59.1691C967.133 59.1761 967.232 59.1883 967.326 59.2057C967.42 59.2197 967.502 59.2371 967.572 59.258H969.538V59.8176L968.482 59.9483C968.587 60.0843 968.674 60.2481 968.743 60.4399C968.813 60.6316 968.848 60.8443 968.848 61.0779C968.848 61.6496 968.654 62.1046 968.268 62.4428C967.881 62.7775 967.349 62.9448 966.673 62.9448C966.512 62.9448 966.348 62.9309 966.181 62.903C966.01 62.9971 965.879 63.1017 965.789 63.2167C965.702 63.3318 965.658 63.4643 965.658 63.6142C965.658 63.7257 965.691 63.8146 965.757 63.8809C965.827 63.9471 965.926 63.9959 966.055 64.0273C966.184 64.0552 966.34 64.0692 966.521 64.0692H967.53C968.154 64.0692 968.632 64.1999 968.963 64.4614C969.298 64.7228 969.465 65.1046 969.465 65.6066C969.465 66.2411 969.207 66.7275 968.691 67.0656C968.175 67.4038 967.429 67.5729 966.453 67.5729ZM966.479 66.8931C966.953 66.8931 967.345 66.8443 967.656 66.7467C967.969 66.6525 968.203 66.5148 968.356 66.3335C968.513 66.1557 968.592 65.9431 968.592 65.6955C968.592 65.4654 968.539 65.2911 968.435 65.1726C968.33 65.0575 968.177 64.9808 967.975 64.9425C967.772 64.9006 967.525 64.8797 967.232 64.8797H966.238C965.98 64.8797 965.756 64.9198 965.564 65C965.372 65.0802 965.224 65.1987 965.119 65.3556C965.018 65.5125 964.968 65.7077 964.968 65.9413C964.968 66.2516 965.098 66.4869 965.36 66.6473C965.621 66.8111 965.994 66.8931 966.479 66.8931ZM966.704 62.312C967.119 62.312 967.431 62.2075 967.64 61.9983C967.849 61.7891 967.954 61.484 967.954 61.0831C967.954 60.6543 967.847 60.3336 967.635 60.1209C967.422 59.9047 967.108 59.7967 966.693 59.7967C966.296 59.7967 965.989 59.9082 965.773 60.1313C965.56 60.351 965.454 60.6735 965.454 61.0988C965.454 61.4893 965.562 61.7891 965.778 61.9983C965.994 62.2075 966.303 62.312 966.704 62.312Z" fill="white"/>
<path d="M1047.84 65L1046.9 62.5735H1043.84L1042.9 65H1042L1044.99 57.3231H1045.79L1048.76 65H1047.84ZM1046.64 61.7839L1045.74 59.3731C1045.72 59.3103 1045.69 59.2075 1045.64 59.0645C1045.59 58.9216 1045.54 58.7734 1045.5 58.62C1045.45 58.4666 1045.41 58.3429 1045.37 58.2487C1045.34 58.3917 1045.3 58.5346 1045.26 58.6775C1045.22 58.817 1045.18 58.9477 1045.14 59.0698C1045.11 59.1883 1045.07 59.2894 1045.05 59.3731L1044.14 61.7839H1046.64ZM1050.83 56.8629V58.8972C1050.83 59.1308 1050.83 59.3574 1050.81 59.577C1050.8 59.7967 1050.79 59.9675 1050.79 60.0895H1050.83C1050.99 59.8315 1051.22 59.6136 1051.51 59.4358C1051.81 59.258 1052.19 59.1691 1052.65 59.1691C1053.37 59.1691 1053.94 59.4184 1054.36 59.9169C1054.79 60.412 1055.01 61.1494 1055.01 62.129C1055.01 62.774 1054.91 63.3178 1054.71 63.7606C1054.52 64.2034 1054.24 64.5381 1053.89 64.7647C1053.53 64.9913 1053.11 65.1046 1052.63 65.1046C1052.17 65.1046 1051.8 65.0209 1051.51 64.8536C1051.22 64.6827 1050.99 64.4753 1050.84 64.2313H1050.77L1050.59 65H1049.96V56.8629H1050.83ZM1052.51 59.896C1052.09 59.896 1051.76 59.9779 1051.52 60.1418C1051.27 60.3022 1051.1 60.5462 1050.99 60.8739C1050.88 61.1982 1050.83 61.6095 1050.83 62.1081V62.1552C1050.83 62.8768 1050.95 63.4294 1051.19 63.8129C1051.43 64.1929 1051.87 64.3829 1052.51 64.3829C1053.04 64.3829 1053.44 64.1877 1053.7 63.7972C1053.97 63.4067 1054.11 62.8489 1054.11 62.1238C1054.11 61.3847 1053.97 60.8286 1053.71 60.4556C1053.45 60.0825 1053.05 59.896 1052.51 59.896ZM1061.73 62.1238C1061.73 62.5944 1061.67 63.0145 1061.55 63.3841C1061.43 63.7536 1061.25 64.0657 1061.02 64.3202C1060.79 64.5747 1060.51 64.7699 1060.19 64.9059C1059.86 65.0383 1059.49 65.1046 1059.08 65.1046C1058.7 65.1046 1058.35 65.0383 1058.03 64.9059C1057.71 64.7699 1057.43 64.5747 1057.2 64.3202C1056.97 64.0657 1056.79 63.7536 1056.66 63.3841C1056.54 63.0145 1056.47 62.5944 1056.47 62.1238C1056.47 61.4962 1056.58 60.9628 1056.79 60.5236C1057 60.0808 1057.31 59.7444 1057.7 59.5143C1058.1 59.2807 1058.57 59.1639 1059.12 59.1639C1059.64 59.1639 1060.1 59.2807 1060.49 59.5143C1060.88 59.7478 1061.19 60.086 1061.4 60.5288C1061.62 60.9681 1061.73 61.4997 1061.73 62.1238ZM1057.37 62.1238C1057.37 62.584 1057.43 62.9832 1057.56 63.3213C1057.68 63.6595 1057.87 63.921 1058.12 64.1058C1058.38 64.2905 1058.7 64.3829 1059.1 64.3829C1059.5 64.3829 1059.83 64.2905 1060.08 64.1058C1060.34 63.921 1060.53 63.6595 1060.65 63.3213C1060.77 62.9832 1060.83 62.584 1060.83 62.1238C1060.83 61.6671 1060.77 61.2731 1060.65 60.9419C1060.53 60.6072 1060.34 60.3492 1060.09 60.1679C1059.83 59.9867 1059.5 59.896 1059.1 59.896C1058.5 59.896 1058.06 60.093 1057.79 60.4869C1057.51 60.8809 1057.37 61.4265 1057.37 62.1238ZM1068.24 59.2685V65H1067.53L1067.4 64.1947H1067.35C1067.24 64.3934 1067.08 64.5607 1066.89 64.6967C1066.71 64.8327 1066.49 64.9338 1066.26 65C1066.02 65.0697 1065.77 65.1046 1065.51 65.1046C1065.05 65.1046 1064.67 65.0314 1064.37 64.885C1064.06 64.7385 1063.83 64.5119 1063.67 64.2051C1063.52 63.8983 1063.44 63.5044 1063.44 63.0233V59.2685H1064.32V62.9605C1064.32 63.4381 1064.43 63.7955 1064.65 64.0325C1064.86 64.2661 1065.19 64.3829 1065.63 64.3829C1066.06 64.3829 1066.4 64.3027 1066.65 64.1424C1066.9 63.982 1067.09 63.7467 1067.2 63.4364C1067.31 63.1226 1067.36 62.7391 1067.36 62.2859V59.2685H1068.24ZM1072.19 64.3934C1072.34 64.3934 1072.48 64.3812 1072.63 64.3568C1072.78 64.3324 1072.91 64.3027 1073 64.2679V64.9425C1072.9 64.9878 1072.76 65.0261 1072.58 65.0575C1072.4 65.0889 1072.22 65.1046 1072.05 65.1046C1071.75 65.1046 1071.47 65.0523 1071.23 64.9477C1070.98 64.8396 1070.78 64.6583 1070.63 64.4038C1070.48 64.1493 1070.41 63.7972 1070.41 63.3475V59.9483H1069.6V59.5247L1070.42 59.1848L1070.76 57.9402H1071.28V59.2685H1072.96V59.9483H1071.28V63.3213C1071.28 63.6804 1071.37 63.9489 1071.53 64.1267C1071.7 64.3045 1071.92 64.3934 1072.19 64.3934ZM1082.22 59.2685V65H1081.5L1081.38 64.1947H1081.33C1081.21 64.3934 1081.06 64.5607 1080.87 64.6967C1080.68 64.8327 1080.47 64.9338 1080.23 65C1080 65.0697 1079.75 65.1046 1079.49 65.1046C1079.03 65.1046 1078.65 65.0314 1078.35 64.885C1078.04 64.7385 1077.81 64.5119 1077.65 64.2051C1077.5 63.8983 1077.42 63.5044 1077.42 63.0233V59.2685H1078.3V62.9605C1078.3 63.4381 1078.41 63.7955 1078.62 64.0325C1078.84 64.2661 1079.17 64.3829 1079.61 64.3829C1080.04 64.3829 1080.37 64.3027 1080.63 64.1424C1080.88 63.982 1081.06 63.7467 1081.17 63.4364C1081.29 63.1226 1081.34 62.7391 1081.34 62.2859V59.2685H1082.22ZM1088.03 63.4312C1088.03 63.7972 1087.94 64.1058 1087.75 64.3568C1087.57 64.6043 1087.31 64.7908 1086.97 64.9163C1086.63 65.0418 1086.22 65.1046 1085.75 65.1046C1085.35 65.1046 1085.01 65.0732 1084.71 65.0105C1084.42 64.9477 1084.16 64.8588 1083.94 64.7438V63.9436C1084.18 64.0587 1084.46 64.1633 1084.78 64.2574C1085.11 64.3515 1085.44 64.3986 1085.77 64.3986C1086.27 64.3986 1086.63 64.3184 1086.85 64.1581C1087.08 63.9977 1087.19 63.7798 1087.19 63.5044C1087.19 63.3475 1087.14 63.2098 1087.05 63.0912C1086.96 62.9692 1086.82 62.8524 1086.61 62.7409C1086.4 62.6258 1086.11 62.5003 1085.74 62.3643C1085.37 62.2249 1085.06 62.0872 1084.79 61.9512C1084.52 61.8118 1084.32 61.6427 1084.17 61.4439C1084.03 61.2452 1083.96 60.9872 1083.96 60.67C1083.96 60.1854 1084.15 59.8141 1084.54 59.5561C1084.93 59.2946 1085.45 59.1639 1086.09 59.1639C1086.43 59.1639 1086.76 59.1988 1087.06 59.2685C1087.36 59.3347 1087.64 59.4254 1087.9 59.5404L1087.61 60.2359C1087.37 60.1348 1087.12 60.0494 1086.85 59.9797C1086.58 59.91 1086.31 59.8751 1086.03 59.8751C1085.63 59.8751 1085.32 59.9413 1085.11 60.0738C1084.89 60.2063 1084.79 60.3876 1084.79 60.6177C1084.79 60.7955 1084.84 60.9419 1084.93 61.057C1085.03 61.172 1085.19 61.2801 1085.41 61.3812C1085.63 61.4823 1085.92 61.6008 1086.28 61.7368C1086.64 61.8693 1086.95 62.007 1087.21 62.1499C1087.47 62.2894 1087.68 62.4602 1087.81 62.6624C1087.96 62.8611 1088.03 63.1174 1088.03 63.4312Z" fill="white"/>
<rect width="32.4" height="32.4" transform="translate(1645.2 45)" fill="#36677F"/>
<path d="M1667.84 48.2791C1667.84 48.3515 1667.84 48.46 1667.82 48.6047C1667.81 48.7439 1667.8 48.858 1667.79 48.9471L1667.39 52.3704H1667.01L1666.58 48.9721C1666.55 48.8163 1666.54 48.6687 1666.53 48.5296C1666.51 48.3904 1666.51 48.2652 1666.51 48.1539C1666.51 47.9423 1666.57 47.7726 1666.69 47.6445C1666.82 47.5109 1666.98 47.4441 1667.17 47.4441C1667.42 47.4441 1667.6 47.5193 1667.69 47.6696C1667.79 47.8143 1667.84 48.0175 1667.84 48.2791ZM1669.49 52.3704L1669.07 49.0473C1669.03 48.7077 1669.01 48.5073 1669 48.4461C1668.99 48.3793 1668.99 48.3236 1668.99 48.2791C1668.99 47.9785 1669.05 47.7642 1669.16 47.6362C1669.29 47.5082 1669.45 47.4441 1669.66 47.4441C1669.93 47.4441 1670.11 47.5221 1670.2 47.6779C1670.29 47.8282 1670.34 48.0314 1670.34 48.2875C1670.34 48.3375 1670.34 48.3904 1670.33 48.4461C1670.33 48.5018 1670.31 48.6771 1670.27 48.9721L1669.88 52.3704H1669.49Z" fill="white"/>
<path d="M1657.1 64.5442H1657.93L1654.15 76.384H1653.3L1657.1 64.5442ZM1665.75 65.3792C1665.75 65.4516 1665.74 65.5601 1665.72 65.7048C1665.71 65.844 1665.7 65.9581 1665.69 66.0472L1665.29 69.4705H1664.91L1664.48 66.0722C1664.45 65.9164 1664.44 65.7688 1664.43 65.6297C1664.41 65.4905 1664.41 65.3653 1664.41 65.254C1664.41 65.0424 1664.47 64.8727 1664.59 64.7446C1664.72 64.611 1664.88 64.5442 1665.07 64.5442C1665.32 64.5442 1665.5 64.6194 1665.59 64.7697C1665.7 64.9144 1665.75 65.1176 1665.75 65.3792ZM1667.39 69.4705L1666.97 66.1474C1666.93 65.8078 1666.91 65.6074 1666.9 65.5462C1666.89 65.4794 1666.89 65.4237 1666.89 65.3792C1666.89 65.0786 1666.95 64.8643 1667.06 64.7363C1667.19 64.6083 1667.35 64.5442 1667.57 64.5442C1667.83 64.5442 1668.01 64.6222 1668.1 64.778C1668.19 64.9283 1668.24 65.1315 1668.24 65.3875C1668.24 65.4376 1668.24 65.4905 1668.23 65.5462C1668.23 65.6019 1668.21 65.7772 1668.17 66.0722L1667.78 69.4705H1667.39Z" fill="white"/>
</g>
<defs>
<filter id="filter0_d_260_1529" x="-16.2" y="30.6" width="1760.4" height="64.7999" filterUnits="userSpaceOnUse" color-interpolation-filters="sRGB">
<feFlood flood-opacity="0" result="BackgroundImageFix"/>
<feColorMatrix in="SourceAlpha" type="matrix" values="0 0 0 0 0 0 0 0 0 0 0 0 0 0 0 0 0 0 127 0" result="hardAlpha"/>
<feOffset dy="1.8"/>
<feGaussianBlur stdDeviation="8.1"/>
<feComposite in2="hardAlpha" operator="out"/>
<feColorMatrix type="matrix" values="0 0 0 0 0 0 0 0 0 0 0 0 0 0 0 0 0 0 0.1 0"/>
<feBlend mode="normal" in2="BackgroundImageFix" result="effect1_dropShadow_260_1529"/>
<feBlend mode="normal" in="SourceGraphic" in2="effect1_dropShadow_260_1529" result="shape"/>
</filter>
<clipPath id="clip0_260_1529">
<rect width="164.097" height="36" fill="white" transform="translate(50.4004 4.5)"/>
</clipPath>
<clipPath id="clip1_260_1529">
<rect width="164.097" height="36" fill="white" transform="translate(50.4004 4.5)"/>
</clipPath>
<clipPath id="clip2_260_1529">
<rect x="1405.48" y="15.2998" width="14.4" height="14.4" rx="7.2" fill="white"/>
</clipPath>
<clipPath id="clip3_260_1529">
<rect width="14.4" height="14.4" fill="white" transform="translate(1405.48 15.2998)"/>
</clipPath>
<clipPath id="clip4_260_1529">
<rect width="14.4" height="14.4" fill="white" transform="translate(1405.48 15.2998)"/>
</clipPath>
</defs>
</svg>
