<svg width="23" height="19" viewBox="0 0 23 19" fill="none" xmlns="http://www.w3.org/2000/svg">
<path d="M8.95793 12.2266L16.9032 4.28125C17.0907 4.09375 17.3095 4 17.5595 4C17.8095 4 18.0282 4.09375 18.2157 4.28125C18.4032 4.46875 18.497 4.69156 18.497 4.94969C18.497 5.20781 18.4032 5.43031 18.2157 5.61719L9.61418 14.2422C9.42668 14.4297 9.20793 14.5234 8.95793 14.5234C8.70793 14.5234 8.48918 14.4297 8.30168 14.2422L4.27043 10.2109C4.08293 10.0234 3.99293 9.80094 4.00043 9.54344C4.00793 9.28594 4.10574 9.06313 4.29387 8.875C4.48199 8.68688 4.70481 8.59312 4.96231 8.59375C5.21981 8.59438 5.44231 8.68813 5.62981 8.875L8.95793 12.2266Z" fill="#3CC35A"/>
</svg>
