<svg width="25" height="26" viewBox="0 0 25 26" fill="none" xmlns="http://www.w3.org/2000/svg">
<path d="M14.5829 13V21.5367C14.6245 21.8617 14.5204 22.2083 14.2808 22.4358C14.1844 22.5363 14.0699 22.6159 13.9439 22.6703C13.8179 22.7247 13.6828 22.7526 13.5464 22.7526C13.41 22.7526 13.2749 22.7247 13.1489 22.6703C13.0229 22.6159 12.9084 22.5363 12.812 22.4358L10.7183 20.2583C10.6047 20.1428 10.5184 20.0015 10.466 19.8455C10.4136 19.6896 10.3966 19.5231 10.4162 19.3592V13H10.3849L4.38494 5.005C4.21578 4.77916 4.13946 4.49286 4.17264 4.20867C4.20582 3.92449 4.34581 3.66551 4.56203 3.48833C4.75994 3.33667 4.97869 3.25 5.20786 3.25H19.7912C20.0204 3.25 20.2391 3.33667 20.437 3.48833C20.6532 3.66551 20.7932 3.92449 20.8264 4.20867C20.8596 4.49286 20.7833 4.77916 20.6141 5.005L14.6141 13H14.5829Z" fill="black"/>
</svg>
